<?xml version="1.0" encoding="UTF-8"?>
<svg xmlns="http://www.w3.org/2000/svg" xmlns:xlink="http://www.w3.org/1999/xlink" width="520px" height="320px" viewBox="0 0 520 320" version="1.1">
<defs>
<clipPath id="clip2">
  <path d="M 284 78 L 299 78 L 299 97 L 284 97 Z M 284 78 "/>
</clipPath>
<clipPath id="clip3">
  <path d="M 333.972656 82.808594 C 319.175781 69.074219 276.800781 85.816406 239.324219 120.207031 C 201.847656 154.597656 183.480469 193.601562 198.273438 207.335938 C 213.070312 221.074219 255.429688 204.347656 292.902344 169.957031 C 330.378906 135.566406 348.765625 96.546875 333.972656 82.808594 Z M 331.820312 84.785156 C 345.433594 97.421875 327.050781 134.671875 290.765625 167.96875 C 254.476562 201.269531 214.039062 218 200.425781 205.363281 C 186.8125 192.722656 205.175781 155.492188 241.460938 122.191406 C 277.75 88.894531 318.207031 72.144531 331.820312 84.785156 Z M 331.820312 84.785156 "/>
</clipPath>
<linearGradient id="linear0" gradientUnits="userSpaceOnUse" x1="648.92303" y1="97.184578" x2="701.11414" y2="122.49093" gradientTransform="matrix(0.433333,0,0,-0.4,-6.051642,132.656744)">
<stop offset="0" style="stop-color:rgb(0%,0%,0%);stop-opacity:0;"/>
<stop offset="0.5" style="stop-color:rgb(0%,0%,0%);stop-opacity:0.317647;"/>
<stop offset="1" style="stop-color:rgb(0%,0%,0%);stop-opacity:0;"/>
</linearGradient>
<clipPath id="clip4">
  <path d="M 236 78 L 258 78 L 258 101 L 236 101 Z M 236 78 "/>
</clipPath>
<clipPath id="clip5">
  <path d="M 200.761719 83.21875 C 185.878906 96.875 204.019531 135.992188 241.273438 170.585938 C 278.53125 205.179688 320.785156 222.132812 335.664062 208.476562 C 350.546875 194.820312 332.425781 155.722656 295.167969 121.128906 C 257.914062 86.535156 215.640625 69.5625 200.761719 83.21875 Z M 202.898438 85.203125 C 216.59375 72.640625 256.941406 89.605469 293.019531 123.101562 C 329.09375 156.597656 347.21875 193.925781 333.527344 206.492188 C 319.832031 219.058594 279.5 202.109375 243.425781 168.613281 C 207.351562 135.117188 189.207031 97.769531 202.898438 85.203125 Z M 202.898438 85.203125 "/>
</clipPath>
<linearGradient id="linear1" gradientUnits="userSpaceOnUse" x1="701.67303" y1="123.43458" x2="647.36414" y2="94.490929" gradientTransform="matrix(-0.433333,0,0,-0.4,540.972035,133.717408)">
<stop offset="0" style="stop-color:rgb(0%,0%,0%);stop-opacity:0;"/>
<stop offset="0.275844" style="stop-color:rgb(0%,0%,0%);stop-opacity:0.419608;"/>
<stop offset="0.601406" style="stop-color:rgb(0%,0%,0%);stop-opacity:0.317647;"/>
<stop offset="1" style="stop-color:rgb(0%,0%,0%);stop-opacity:0.623529;"/>
</linearGradient>
<clipPath id="clip6">
  <path d="M 286.386719 80.191406 L 297.988281 80.191406 L 297.988281 93.121094 L 286.386719 93.121094 Z M 239.332031 81.199219 L 250.929688 81.199219 L 250.929688 94.128906 L 239.332031 94.128906 Z M 293.0625 199.1875 L 304.660156 199.1875 L 304.660156 212.117188 L 293.0625 212.117188 Z M 293.0625 199.1875 "/>
</clipPath>
<clipPath id="clip7">
  <path d="M 228 95 L 250 95 L 250 119 L 228 119 Z M 228 95 "/>
</clipPath>
<clipPath id="clip8">
  <path d="M 274.171875 255.242188 C 253.242188 256.664062 233.125 218.378906 229.242188 169.734375 C 225.355469 121.085938 239.175781 80.519531 260.105469 79.09375 C 281.03125 77.671875 301.148438 115.929688 305.03125 164.578125 C 308.917969 213.222656 295.097656 253.816406 274.171875 255.242188 Z M 273.949219 252.449219 C 293.203125 251.136719 305.769531 211.886719 302.007812 164.78125 C 298.246094 117.679688 279.582031 80.578125 260.328125 81.886719 C 241.070312 83.195312 228.503906 122.421875 232.265625 169.527344 C 236.027344 216.632812 254.691406 253.757812 273.949219 252.449219 Z M 273.949219 252.449219 "/>
</clipPath>
<linearGradient id="linear2" gradientUnits="userSpaceOnUse" x1="667.92303" y1="107.43458" x2="703.86414" y2="122.99093" gradientTransform="matrix(0.284019,-0.302103,-0.327278,-0.262171,79.764867,344.879652)">
<stop offset="0" style="stop-color:rgb(0%,0%,0%);stop-opacity:0;"/>
<stop offset="0.5" style="stop-color:rgb(0%,0%,0%);stop-opacity:0.501961;"/>
<stop offset="1" style="stop-color:rgb(0%,0%,0%);stop-opacity:0;"/>
</linearGradient>
<clipPath id="clip9">
  <path d="M 195 78 L 341 78 L 341 214 L 195 214 Z M 195 78 "/>
</clipPath>
<clipPath id="clip10">
  <path d="M 192.398438 65.605469 L 356.136719 216.75 L 293.921875 274.175781 L 130.183594 123.035156 Z M 192.398438 65.605469 "/>
</clipPath>
<clipPath id="clip11">
  <path d="M 193 76 L 344 76 L 344 216 L 193 216 Z M 193 76 "/>
</clipPath>
<clipPath id="clip12">
  <path d="M 192.398438 65.605469 L 356.136719 216.75 L 293.921875 274.175781 L 130.183594 123.035156 Z M 192.398438 65.605469 "/>
</clipPath>
<clipPath id="clip13">
  <path d="M 290 196 L 305 196 L 305 214 L 290 214 Z M 290 196 "/>
</clipPath>
<clipPath id="clip14">
  <path d="M 200.761719 83.21875 C 185.878906 96.875 204.019531 135.992188 241.273438 170.585938 C 278.53125 205.179688 320.785156 222.132812 335.664062 208.476562 C 350.546875 194.820312 332.425781 155.722656 295.167969 121.128906 C 257.914062 86.535156 215.640625 69.5625 200.761719 83.21875 Z M 202.898438 85.203125 C 216.59375 72.640625 256.941406 89.605469 293.019531 123.101562 C 329.09375 156.597656 347.21875 193.925781 333.527344 206.492188 C 319.832031 219.058594 279.5 202.109375 243.425781 168.613281 C 207.351562 135.117188 189.207031 97.769531 202.898438 85.203125 Z M 202.898438 85.203125 "/>
</clipPath>
<linearGradient id="linear3" gradientUnits="userSpaceOnUse" x1="671.04803" y1="108.55958" x2="701.86414" y2="121.74093" gradientTransform="matrix(0.433333,0,0,0.4,0.00000183489,160.000003)">
<stop offset="0" style="stop-color:rgb(0%,0%,0%);stop-opacity:0;"/>
<stop offset="0.5" style="stop-color:rgb(0%,0%,0%);stop-opacity:0.501961;"/>
<stop offset="1" style="stop-color:rgb(0%,0%,0%);stop-opacity:0;"/>
</linearGradient>
<clipPath id="clip15">
  <path d="M 251.695312 66 L 306 66 L 306 243 L 251.695312 243 Z M 251.695312 66 "/>
</clipPath>
<clipPath id="clip16">
  <path d="M 251.695312 63 L 309 63 L 309 245 L 251.695312 245 Z M 251.695312 63 "/>
</clipPath>
<clipPath id="clip17">
  <path d="M 291 147 L 306 147 L 306 167 L 291 167 Z M 291 147 "/>
</clipPath>
<clipPath id="clip18">
  <path d="M 219.792969 287.558594 C 239.261719 294.789062 271.035156 263.964844 290.757812 218.710938 C 310.484375 173.457031 310.679688 130.929688 291.210938 123.699219 C 271.746094 116.46875 239.980469 147.273438 220.253906 192.527344 C 200.53125 237.78125 200.324219 280.332031 219.792969 287.558594 Z M 220.925781 284.960938 C 203.011719 278.308594 203.972656 237.390625 223.070312 193.570312 C 242.167969 149.753906 272.167969 119.644531 290.078125 126.296875 C 307.992188 132.949219 307.042969 173.847656 287.945312 217.664062 C 268.847656 261.484375 238.839844 291.617188 220.925781 284.960938 Z M 220.925781 284.960938 "/>
</clipPath>
<linearGradient id="linear4" gradientUnits="userSpaceOnUse" x1="670.29602" y1="109.6553" x2="702.95557" y2="121.85095" gradientTransform="matrix(-0.171067,-0.367512,0.398138,-0.157908,375.470576,427.515938)">
<stop offset="0" style="stop-color:rgb(0%,0%,0%);stop-opacity:0;"/>
<stop offset="0.5" style="stop-color:rgb(0%,0%,0%);stop-opacity:0.501961;"/>
<stop offset="1" style="stop-color:rgb(0%,0%,0%);stop-opacity:0;"/>
</linearGradient>
<clipPath id="clip19">
  <path d="M 230 193 L 252 193 L 252 217 L 230 217 Z M 230 193 "/>
</clipPath>
<clipPath id="clip20">
  <path d="M 276.066406 57.222656 C 255.140625 55.796875 235.023438 94.082031 231.136719 142.730469 C 227.253906 191.375 241.074219 231.945312 262 233.371094 C 282.925781 234.792969 303.042969 196.535156 306.925781 147.886719 C 310.8125 99.238281 296.992188 58.644531 276.066406 57.222656 Z M 275.84375 60.015625 C 295.101562 61.324219 307.664062 100.578125 303.902344 147.679688 C 300.140625 194.785156 281.480469 231.886719 262.222656 230.578125 C 242.96875 229.265625 230.402344 190.039062 234.164062 142.9375 C 237.925781 95.832031 256.585938 58.703125 275.84375 60.015625 Z M 275.84375 60.015625 "/>
</clipPath>
<linearGradient id="linear5" gradientUnits="userSpaceOnUse" x1="667.92303" y1="107.43458" x2="703.86414" y2="122.99093" gradientTransform="matrix(0.284019,0.302103,-0.327278,0.262171,81.660752,-32.416243)">
<stop offset="0" style="stop-color:rgb(0%,0%,0%);stop-opacity:0;"/>
<stop offset="0.5" style="stop-color:rgb(0%,0%,0%);stop-opacity:0.501961;"/>
<stop offset="1" style="stop-color:rgb(0%,0%,0%);stop-opacity:0;"/>
</linearGradient>
<clipPath id="clip21">
  <path d="M 193 78 L 340 78 L 340 213 L 193 213 Z M 193 78 "/>
</clipPath>
<clipPath id="clip22">
  <path d="M 166.335938 225.105469 L 347.40625 57.960938 L 424.167969 128.820312 L 243.097656 295.960938 Z M 166.335938 225.105469 "/>
</clipPath>
<clipPath id="clip23">
  <path d="M 190 75 L 342 75 L 342 215 L 190 215 Z M 190 75 "/>
</clipPath>
<clipPath id="clip24">
  <path d="M 166.335938 225.105469 L 347.40625 57.960938 L 424.167969 128.820312 L 243.097656 295.960938 Z M 166.335938 225.105469 "/>
</clipPath>
<clipPath id="clip25">
  <path d="M 193 183 L 229 183 L 229 213 L 193 213 Z M 193 183 "/>
</clipPath>
<clipPath id="clip26">
  <path d="M 333.972656 82.808594 C 319.175781 69.074219 276.800781 85.816406 239.324219 120.207031 C 201.847656 154.597656 183.480469 193.601562 198.273438 207.335938 C 213.070312 221.074219 255.429688 204.347656 292.902344 169.957031 C 330.378906 135.566406 348.765625 96.546875 333.972656 82.808594 Z M 331.820312 84.785156 C 345.433594 97.421875 327.050781 134.671875 290.765625 167.96875 C 254.476562 201.269531 214.039062 218 200.425781 205.363281 C 186.8125 192.722656 205.175781 155.492188 241.460938 122.191406 C 277.75 88.894531 318.207031 72.144531 331.820312 84.785156 Z M 331.820312 84.785156 "/>
</clipPath>
<linearGradient id="linear6" gradientUnits="userSpaceOnUse" x1="670.33978" y1="110.38545" x2="696.70795" y2="133.47089" gradientTransform="matrix(-0.987312,0.202472,-0.219345,-0.911365,910.456319,174.747782)">
<stop offset="0" style="stop-color:rgb(0%,0%,0%);stop-opacity:0;"/>
<stop offset="0.5" style="stop-color:rgb(0%,0%,0%);stop-opacity:0.501961;"/>
<stop offset="1" style="stop-color:rgb(0%,0%,0%);stop-opacity:0;"/>
</linearGradient>
<clipPath id="clip27">
  <path d="M 256 228 L 277 228 L 277 243 L 256 243 Z M 256 228 "/>
</clipPath>
<clipPath id="clip28">
  <path d="M 267.097656 66.058594 C 246.113281 66.210938 229.441406 105.878906 229.859375 154.65625 C 230.277344 203.433594 247.632812 242.828125 268.613281 242.675781 C 289.597656 242.523438 306.273438 202.878906 305.851562 154.101562 C 305.433594 105.324219 288.082031 65.902344 267.097656 66.058594 Z M 267.121094 68.855469 C 286.429688 68.714844 302.414062 106.890625 302.820312 154.125 C 303.226562 201.355469 287.898438 239.734375 268.589844 239.875 C 249.28125 240.019531 233.296875 201.867188 232.894531 154.636719 C 232.488281 107.402344 247.8125 69 267.121094 68.855469 Z M 267.121094 68.855469 "/>
</clipPath>
<linearGradient id="linear7" gradientUnits="userSpaceOnUse" x1="670.71643" y1="108.5358" x2="703.11456" y2="122.86324" gradientTransform="matrix(-0.409404,0.131084,-0.142008,-0.377911,563.849796,193.473363)">
<stop offset="0" style="stop-color:rgb(0%,0%,0%);stop-opacity:0;"/>
<stop offset="0.5" style="stop-color:rgb(0%,0%,0%);stop-opacity:0.462745;"/>
<stop offset="1" style="stop-color:rgb(0%,0%,0%);stop-opacity:0;"/>
</linearGradient>
<clipPath id="clip29">
  <path d="M 252 175 L 282 175 L 282 203 L 252 203 Z M 252 175 "/>
</clipPath>
<clipPath id="clip30">
  <path d="M 333.972656 82.808594 C 319.175781 69.074219 276.800781 85.816406 239.324219 120.207031 C 201.847656 154.597656 183.480469 193.601562 198.273438 207.335938 C 213.070312 221.074219 255.429688 204.347656 292.902344 169.957031 C 330.378906 135.566406 348.765625 96.546875 333.972656 82.808594 Z M 331.820312 84.785156 C 345.433594 97.421875 327.050781 134.671875 290.765625 167.96875 C 254.476562 201.269531 214.039062 218 200.425781 205.363281 C 186.8125 192.722656 205.175781 155.492188 241.460938 122.191406 C 277.75 88.894531 318.207031 72.144531 331.820312 84.785156 Z M 331.820312 84.785156 "/>
</clipPath>
<linearGradient id="linear8" gradientUnits="userSpaceOnUse" x1="667.92303" y1="107.43458" x2="703.86414" y2="122.99093" gradientTransform="matrix(-0.422367,0.089418,0.0968695,0.389877,545.490056,82.410746)">
<stop offset="0" style="stop-color:rgb(0%,0%,0%);stop-opacity:0;"/>
<stop offset="0.5" style="stop-color:rgb(0%,0%,0%);stop-opacity:0.501961;"/>
<stop offset="1" style="stop-color:rgb(0%,0%,0%);stop-opacity:0;"/>
</linearGradient>
<clipPath id="clip31">
  <path d="M 243 170 L 291 170 L 291 214 L 243 214 Z M 243 170 "/>
</clipPath>
<clipPath id="clip32">
  <path d="M 256.5 170.386719 L 290.195312 201.488281 L 277.390625 213.308594 L 243.699219 182.207031 Z M 256.5 170.386719 "/>
</clipPath>
<clipPath id="clip1">
  <rect x="0" y="0" width="520" height="320"/>
</clipPath>
<g id="surface5" clip-path="url(#clip1)">
<rect x="0" y="0" width="520" height="320" style="fill:rgb(92.941176%,12.156863%,16.078431%);fill-opacity:1;stroke:none;"/>
<path style="fill-rule:nonzero;fill:rgb(100%,100%,100%);fill-opacity:1;stroke-width:0.5;stroke-linecap:butt;stroke-linejoin:miter;stroke:rgb(0%,0%,0%);stroke-opacity:1;stroke-miterlimit:4;" d="M 316.761101 343.506862 C 292.548361 343.697292 273.311582 393.282253 273.793854 454.253933 C 274.276125 515.225612 294.301666 564.468776 318.509899 564.278347 C 342.72264 564.087917 361.963926 514.532253 361.477147 453.560573 C 360.994875 392.588893 340.973842 343.31155 316.761101 343.506862 Z M 316.788145 347.002956 C 339.067291 346.827175 357.510801 394.546901 357.979551 453.58987 C 358.448301 512.627956 340.762003 560.601589 318.482856 560.77737 C 296.203709 560.958034 277.7602 513.267604 277.295957 454.229518 C 276.827207 395.18655 294.508998 347.18362 316.788145 347.002956 Z M 316.788145 347.002956 " transform="matrix(0.866667,0,0,0.8,-7.428632,-208.746896)"/>
<path style="fill-rule:nonzero;fill:rgb(100%,100%,100%);fill-opacity:1;stroke-width:0.5;stroke-linecap:butt;stroke-linejoin:miter;stroke:rgb(0%,0%,0%);stroke-opacity:1;stroke-miterlimit:4;" d="M 393.924563 364.444362 C 376.851245 347.276393 327.957015 368.204128 284.714827 411.192409 C 241.47264 454.18069 220.279731 502.935573 237.348541 520.103542 C 254.421858 537.276393 303.29806 516.36819 346.535741 473.379909 C 389.777928 430.391628 410.993373 381.617214 393.924563 364.444362 Z M 391.441089 366.915065 C 407.148721 382.710964 385.937784 429.273464 344.070296 470.894558 C 302.198301 512.520534 255.539647 533.43362 239.832015 517.637722 C 224.124383 501.83694 245.312784 455.298854 287.180272 413.672878 C 329.052267 372.051784 375.733457 351.114284 391.441089 366.915065 Z M 391.441089 366.915065 " transform="matrix(0.866667,0,0,0.8,-7.428632,-208.746896)"/>
<g clip-path="url(#clip2)" clip-rule="nonzero">
<g clip-path="url(#clip3)" clip-rule="nonzero">
<path style=" stroke:none;fill-rule:nonzero;fill:url(#linear0);" d="M 284.273438 96.117188 L 298.675781 96.117188 L 298.675781 77.027344 L 284.273438 77.027344 Z M 284.273438 96.117188 "/>
</g>
</g>
<path style="fill-rule:nonzero;fill:rgb(100%,100%,100%);fill-opacity:1;stroke-width:0.5;stroke-linecap:butt;stroke-linejoin:miter;stroke:rgb(0%,0%,0%);stroke-opacity:1;stroke-miterlimit:4;" d="M 240.219635 364.957058 C 223.047159 382.02737 243.978649 430.923854 286.963926 474.166042 C 329.953709 517.408229 378.708217 538.599636 395.876185 521.529323 C 413.048661 504.459011 392.139707 455.58694 349.149923 412.344753 C 306.164647 369.102565 257.387604 347.886745 240.219635 364.957058 Z M 242.68508 367.437526 C 258.487363 351.734401 305.042351 372.940456 346.670957 414.810573 C 388.295056 456.68069 409.208517 503.340847 393.410741 519.048854 C 377.608457 534.756862 331.071498 513.570339 289.447399 471.700222 C 247.823301 429.830104 226.887303 383.145534 242.68508 367.437526 Z M 242.68508 367.437526 " transform="matrix(0.866667,0,0,0.8,-7.428632,-208.746896)"/>
<g clip-path="url(#clip4)" clip-rule="nonzero">
<g clip-path="url(#clip5)" clip-rule="nonzero">
<path style=" stroke:none;fill-rule:nonzero;fill:url(#linear1);" d="M 257.578125 100.679688 L 236.246094 100.679688 L 236.246094 78.085938 L 257.578125 78.085938 Z M 257.578125 100.679688 "/>
</g>
</g>
<g clip-path="url(#clip6)" clip-rule="nonzero">
<path style="fill-rule:nonzero;fill:rgb(100%,100%,100%);fill-opacity:1;stroke-width:0.5;stroke-linecap:butt;stroke-linejoin:miter;stroke:rgb(0%,0%,0%);stroke-opacity:1;stroke-miterlimit:4;" d="M 316.761101 343.506862 C 292.548361 343.697292 273.311582 393.282253 273.793854 454.253933 C 274.276125 515.225612 294.301666 564.468776 318.509899 564.278347 C 342.72264 564.087917 361.963926 514.532253 361.477147 453.560573 C 360.994875 392.588893 340.973842 343.31155 316.761101 343.506862 Z M 316.788145 347.002956 C 339.067291 346.827175 357.510801 394.546901 357.979551 453.58987 C 358.448301 512.627956 340.762003 560.601589 318.482856 560.77737 C 296.203709 560.958034 277.7602 513.267604 277.295957 454.229518 C 276.827207 395.18655 294.508998 347.18362 316.788145 347.002956 Z M 316.788145 347.002956 " transform="matrix(0.866667,0,0,0.8,-7.428632,-208.746896)"/>
</g>
<g clip-path="url(#clip7)" clip-rule="nonzero">
<g clip-path="url(#clip8)" clip-rule="nonzero">
<path style=" stroke:none;fill-rule:nonzero;fill:url(#linear2);" d="M 240.15625 118.527344 L 249.597656 108.488281 L 233.976562 95.972656 L 224.535156 106.011719 Z M 240.15625 118.527344 "/>
</g>
</g>
<path style=" stroke:none;fill-rule:nonzero;fill:rgb(99.607843%,94.901961%,0%);fill-opacity:1;" d="M 209.921875 123.039062 L 245.597656 172.539062 L 328.988281 157.789062 L 325.484375 145.667969 L 215.394531 118.191406 Z M 209.921875 123.039062 "/>
<path style="fill-rule:nonzero;fill:rgb(99.607843%,94.901961%,0%);fill-opacity:1;stroke-width:0.5;stroke-linecap:butt;stroke-linejoin:miter;stroke:rgb(0%,0%,0%);stroke-opacity:1;stroke-miterlimit:4;" d="M 355.077145 479.597581 C 355.077145 479.597581 370.11771 486.916917 373.660378 492.810472 C 377.203047 498.699143 377.658275 509.114182 371.785378 514.504807 C 365.912482 519.895432 345.43622 533.215745 339.283876 543.435472 C 313.056412 561.335862 317.838563 547.410081 315.35509 540.935472 C 319.271857 534.016526 321.273059 528.020432 321.151364 522.922776 C 320.736701 505.662034 303.74902 499.397386 291.557013 501.096604 C 277.215066 503.093675 259.145655 525.608323 258.383936 538.308518 C 258.501124 543.274339 262.683816 549.558518 255.868912 552.024339 C 249.328948 554.392503 238.926304 553.083909 235.771256 526.995042 C 234.108095 513.225511 232.958756 496.589768 236.681713 483.205979 C 238.389946 477.073167 242.748419 469.709886 248.071436 466.516526 C 251.312121 464.573167 258.870715 464.221604 263.761039 464.563401 C 269.386039 464.958909 272.50503 462.136643 272.410378 456.501878 " transform="matrix(0.866667,0,0,0.8,-7.178838,-209.13119)"/>
<path style="fill-rule:nonzero;fill:rgb(100%,100%,100%);fill-opacity:1;stroke-width:0.5;stroke-linecap:butt;stroke-linejoin:miter;stroke:rgb(0%,0%,0%);stroke-opacity:1;stroke-miterlimit:4;" d="M 316.226422 190.243378 C 322.261028 196.008082 322.928747 206.084505 317.718219 212.756207 C 312.508495 219.432724 303.389442 220.182807 297.343911 214.434777 C 291.293935 208.68749 290.603988 198.614778 295.797962 191.926038 " transform="matrix(0.854837,0.13173,-0.142707,0.78908,26.733397,-42.82835)"/>
<path style=" stroke:none;fill-rule:nonzero;fill:rgb(63.921569%,64.313725%,65.098039%);fill-opacity:1;" d="M 255.675781 154.621094 L 259.046875 157.515625 L 255.996094 158.042969 L 256.980469 163.089844 L 257.066406 158.832031 L 261.183594 158.058594 L 258.8125 155.660156 L 261.6875 155.566406 L 262.398438 156.527344 L 266.664062 153.546875 L 268.46875 150.15625 C 265.972656 146.851562 261.597656 147.660156 258.957031 147.386719 L 255.632812 150.355469 Z M 255.675781 154.621094 "/>
<path style=" stroke:none;fill-rule:nonzero;fill:rgb(77.254902%,77.254902%,77.254902%);fill-opacity:1;" d="M 249.371094 160.191406 C 249.566406 162.792969 250.765625 164.808594 252.773438 166.28125 C 254.753906 167.730469 257.066406 168.558594 260.089844 168.511719 C 262.757812 168.472656 265.636719 167.5 267.65625 165.496094 C 269.050781 164.117188 269.929688 162.261719 270.488281 159.933594 C 268.652344 165.480469 264.457031 167.722656 260 167.835938 C 257.621094 167.894531 255.507812 167.398438 253.445312 165.988281 C 251.324219 164.539062 250.023438 162.777344 249.371094 160.191406 Z M 249.371094 160.191406 "/>
<path style="fill:none;stroke-width:0.5;stroke-linecap:butt;stroke-linejoin:miter;stroke:rgb(0%,0%,0%);stroke-opacity:1;stroke-miterlimit:4;" d="M 318.05491 449.1093 C 315.174801 444.97844 310.126725 445.989182 307.07985 445.647386 " transform="matrix(0.866667,0,0,0.8,-7.178838,-209.13119)"/>
<path style=" stroke:none;fill-rule:nonzero;fill:rgb(77.254902%,77.254902%,77.254902%);fill-opacity:1;" d="M 251.097656 161.402344 C 251.402344 163.3125 252.46875 164.738281 254.253906 165.722656 C 256.011719 166.6875 258.078125 167.261719 260.644531 167.070312 C 262.90625 166.902344 265.300781 165.949219 266.910156 164.367188 C 268.023438 163.273438 268.667969 161.855469 269.019531 160.105469 C 267.976562 162.589844 266.753906 164.152344 264.859375 165.167969 C 263.558594 165.867188 262.074219 166.363281 260.535156 166.492188 C 258.515625 166.660156 256.691406 166.351562 254.867188 165.417969 C 252.988281 164.457031 251.789062 163.277344 251.097656 161.402344 Z M 251.097656 161.402344 "/>
<path style=" stroke:none;fill-rule:nonzero;fill:rgb(77.254902%,77.254902%,77.254902%);fill-opacity:1;" d="M 254.316406 163.089844 C 254.808594 164.050781 255.367188 164.527344 256.617188 164.972656 C 257.84375 165.414062 259.363281 165.699219 261.113281 165.527344 C 262.660156 165.378906 264.363281 164.691406 265.429688 163.84375 C 266.160156 163.257812 266.570312 162.714844 266.972656 161.734375 C 265.996094 163.023438 265.226562 163.742188 263.953125 164.308594 C 263.078125 164.699219 262.074219 164.996094 261.023438 165.101562 C 259.644531 165.246094 258.390625 165.140625 257.117188 164.71875 C 255.804688 164.285156 255.042969 163.96875 254.316406 163.089844 Z M 254.316406 163.089844 "/>
<path style="fill-rule:nonzero;fill:rgb(99.607843%,94.901961%,0%);fill-opacity:1;stroke-width:0.5;stroke-linecap:butt;stroke-linejoin:miter;stroke:rgb(0%,0%,0%);stroke-opacity:1;stroke-miterlimit:4;" d="M 385.915487 455.071214 C 381.435318 453.303636 377.39235 451.428636 370.645054 451.233323 C 358.493612 450.876878 346.197938 462.971604 337.075342 463.108323 C 335.651063 463.127854 331.21146 465.549729 330.377626 450.427659 C 330.134237 446.038011 326.76735 443.806565 323.057914 444.538987 L 317.608696 454.714768 C 316.950643 456.931565 320.168792 456.404222 321.196436 457.400315 C 322.021256 458.191331 322.22408 460.920823 322.007734 461.506761 C 321.791388 462.092698 319.154669 468.044847 319.226785 469.036057 C 319.294393 470.027268 317.856592 477.8593 333.681412 477.371018 C 339.775162 477.180589 351.218972 480.256761 362.725883 480.198167 C 379.253828 480.110276 395.664585 476.448167 395.20485 462.70305 C 394.2989 435.784104 376.342169 415.491136 362.978287 402.620042 L 294.414585 394.412034 C 275.222878 395.007737 249.982494 402.156175 243.275763 408.049729 C 236.821436 413.713792 236.578047 418.420823 236.789886 423.855393 C 237.127926 432.424729 241.035679 436.443284 245.547398 441.003831 C 256.608095 452.190354 271.206953 455.261643 286.626124 462.795823 C 288.438023 463.679612 292.228588 462.800706 293.057914 460.964768 C 295.027566 456.594651 296.176905 449.783128 298.281773 448.865159 C 300.382133 447.94719 300.35509 450.505784 303.108996 449.558518 C 305.86741 448.60637 310.167289 438.938401 310.167289 438.938401 C 310.379128 436.594651 306.182914 435.271409 303.947338 435.427659 C 301.716268 435.583909 299.746616 435.642503 296.983696 437.214768 C 294.225282 438.787034 289.862301 444.094651 288.591268 445.608323 C 287.324741 447.121995 286.517951 447.751878 285.287482 447.751878 C 284.06152 447.751878 282.943732 446.995042 281.361701 444.802659 C 279.779669 442.615159 273.19914 430.305589 270.197338 425.071214 C 267.200042 419.836839 263.400463 417.248948 260.110198 415.427659 C 256.819934 413.611253 251.447338 413.464768 251.447338 413.464768 " transform="matrix(0.866667,0,0,0.8,-7.178838,-209.13119)"/>
<path style=" stroke:none;fill-rule:nonzero;fill:rgb(0%,0%,0%);fill-opacity:1;" d="M 256.675781 118.03125 C 257.007812 117.414062 256.546875 116.589844 255.636719 116.191406 C 254.730469 115.792969 253.726562 115.972656 253.390625 116.589844 C 253.058594 117.207031 253.523438 118.03125 254.429688 118.429688 C 255.335938 118.828125 256.339844 118.648438 256.675781 118.03125 Z M 256.675781 118.03125 "/>
<path style=" stroke:none;fill-rule:nonzero;fill:rgb(99.607843%,94.901961%,0%);fill-opacity:1;" d="M 270.332031 89.402344 L 279.304688 90.765625 L 283.351562 111.421875 L 263.109375 110.765625 Z M 270.332031 89.402344 "/>
<path style="fill-rule:nonzero;fill:rgb(99.607843%,94.901961%,0%);fill-opacity:1;stroke-width:0.5;stroke-linecap:butt;stroke-linejoin:miter;stroke:rgb(0%,0%,0%);stroke-opacity:1;stroke-miterlimit:4;" d="M 355.992109 449.451097 C 367.336761 436.687425 366.250523 416.45305 363.392951 402.898362 C 360.156773 387.537034 344.210258 375.754807 337.368311 373.435472 C 338.238203 370.476487 338.319333 362.590745 331.964164 362.541917 C 328.096977 362.51262 321.696737 369.504807 322.007734 377.497972 " transform="matrix(0.866667,0,0,0.8,-7.178838,-209.13119)"/>
<path style=" stroke:none;fill-rule:nonzero;fill:rgb(91.372549%,59.215686%,7.45098%);fill-opacity:0.796078;" d="M 308.226562 116.617188 C 310.347656 127.566406 310.261719 140.871094 301.03125 150.972656 C 297.410156 154.933594 295.179688 156.648438 295.179688 156.648438 C 297.265625 153.722656 298.632812 150.09375 299.171875 147.425781 L 301.242188 148.324219 C 306.019531 141.34375 306.566406 133.851562 305.589844 125.4375 L 308.105469 125.800781 C 306.886719 119.347656 306.054688 118.542969 306.652344 117.382812 C 307.160156 116.851562 308.226562 116.617188 308.226562 116.617188 Z M 308.226562 116.617188 "/>
<path style=" stroke:none;fill-rule:nonzero;fill:rgb(91.372549%,59.215686%,7.45098%);fill-opacity:0.796078;" d="M 216.921875 224.644531 C 216.164062 221.21875 215.871094 213.425781 217.476562 209.40625 C 207.753906 217.398438 209.273438 223.050781 216.921875 224.644531 Z M 216.921875 224.644531 "/>
<path style="fill:none;stroke-width:0.5;stroke-linecap:butt;stroke-linejoin:miter;stroke:rgb(0%,0%,0%);stroke-opacity:1;stroke-miterlimit:4;" d="M 257.951244 538.201097 C 257.081352 533.91887 257.365306 528.196214 259.21777 523.1718 " transform="matrix(0.866667,0,0,0.8,-7.178838,-209.13119)"/>
<path style=" stroke:none;fill-rule:nonzero;fill:rgb(92.941176%,66.666667%,5.882353%);fill-opacity:1;" d="M 226.207031 167.015625 C 226.207031 167.015625 232.183594 172.539062 231.300781 180.382812 C 230.445312 185.796875 228.496094 190.320312 225.902344 195.332031 C 227.898438 190.617188 230.101562 184.414062 230.140625 178.664062 C 230.167969 174.667969 229.5 170.789062 226.207031 167.015625 Z M 226.207031 167.015625 "/>
<path style="fill:none;stroke-width:0.5;stroke-linecap:butt;stroke-linejoin:miter;stroke:rgb(0%,0%,0%);stroke-opacity:1;stroke-miterlimit:4;" d="M 263.733996 517.414964 C 269.971977 503.508714 280.180811 481.506761 268.056412 469.255784 " transform="matrix(0.866667,0,0,0.8,-7.178838,-209.13119)"/>
<path style=" stroke:none;fill-rule:nonzero;fill:rgb(91.372549%,59.215686%,7.45098%);fill-opacity:0.796078;" d="M 290.90625 113.003906 C 290.140625 118.15625 287.257812 119.59375 284.558594 122.132812 C 284.402344 121.085938 285.140625 120.378906 284.34375 119.453125 C 287.390625 118.433594 289.195312 116.34375 290.90625 113.003906 Z M 290.90625 113.003906 "/>
<path style="fill:none;stroke-width:0.5;stroke-linecap:butt;stroke-linejoin:miter;stroke:rgb(0%,0%,0%);stroke-opacity:1;stroke-miterlimit:4;" d="M 336.620114 414.080003 C 340.460258 410.16887 345.098179 406.716722 344.386039 396.462815 " transform="matrix(0.866667,0,0,0.8,-7.178838,-209.13119)"/>
<path style=" stroke:none;fill-rule:nonzero;fill:rgb(91.372549%,59.215686%,7.45098%);fill-opacity:0.796078;" d="M 235.53125 133.648438 C 238.3125 125.722656 241.515625 117.472656 248.863281 110.863281 C 245.988281 114.0625 243.539062 117.210938 241.753906 121.097656 L 242.601562 122.273438 C 241.054688 123.742188 240.183594 124.730469 239.03125 127.230469 L 240.148438 127.761719 C 238.753906 129.535156 236.5625 133.984375 235.339844 136.882812 L 236.300781 137.230469 C 235.386719 139.425781 234.609375 141.398438 234.328125 142.542969 C 234.328125 142.542969 234.289062 137.292969 235.53125 133.648438 Z M 235.53125 133.648438 "/>
<path style="fill:none;stroke-width:0.5;stroke-linecap:butt;stroke-linejoin:miter;stroke:rgb(0%,0%,0%);stroke-opacity:1;stroke-miterlimit:4;" d="M 280.050102 428.474534 C 283.259237 418.567307 286.95515 408.254807 295.433215 399.993089 " transform="matrix(0.866667,0,0,0.8,-7.178838,-209.13119)"/>
<path style="fill-rule:nonzero;fill:rgb(99.607843%,94.901961%,0%);fill-opacity:1;stroke-width:0.5;stroke-linecap:butt;stroke-linejoin:miter;stroke:rgb(0%,0%,0%);stroke-opacity:1;stroke-miterlimit:4;" d="M 303.505631 377.742112 C 300.977085 377.161057 290.443732 378.962815 289.2989 385.349534 C 288.758035 388.357347 290.768251 391.716722 295.203347 389.831956 " transform="matrix(0.866667,0,0,0.8,-7.178838,-209.13119)"/>
<path style="fill-rule:nonzero;fill:rgb(99.607843%,94.901961%,0%);fill-opacity:1;stroke-width:0.5;stroke-linecap:butt;stroke-linejoin:miter;stroke:rgb(0%,0%,0%);stroke-opacity:1;stroke-miterlimit:4;" d="M 322.589164 372.136643 C 313.241208 371.633714 294.509237 377.746995 294.820234 393.967698 C 294.977987 402.16594 297.57414 406.247972 300.102686 408.284104 C 301.044693 407.51262 301.188924 407.746995 301.950643 408.005784 C 303.099982 408.401292 303.884237 409.031175 305.002025 411.843675 C 307.593672 418.386643 306.99872 422.742112 307.480991 428.523362 C 307.494513 428.684495 310.320535 427.620042 310.541388 427.786057 " transform="matrix(0.866667,0,0,0.8,-7.178838,-209.13119)"/>
<path style=" stroke:none;fill-rule:nonzero;fill:rgb(91.372549%,59.215686%,7.45098%);fill-opacity:0.796078;" d="M 272.191406 98.292969 C 269.300781 103.394531 267.222656 106.914062 265.625 112.28125 C 265.625 112.28125 265.941406 114.214844 264.121094 113.992188 C 262.300781 113.769531 260 114.085938 259.441406 114.4375 C 258.882812 114.785156 257.625 115.285156 257.734375 115.832031 C 257.734375 115.832031 253.480469 114.882812 252.382812 116.898438 C 252.65625 116.933594 252.425781 118.035156 252.996094 117.464844 C 254.027344 116.4375 255.25 117.507812 256.179688 118.273438 C 256.460938 117.3125 258.632812 117.914062 259.910156 117.828125 C 260.742188 116.648438 264.097656 116.605469 265.972656 116.765625 C 265.5 121.664062 265.148438 127.449219 267.195312 130.519531 C 266.722656 126.863281 266.308594 117.820312 269.492188 116.414062 C 270.050781 115.816406 270.753906 115.351562 271.257812 111.578125 C 271.976562 106.179688 272.191406 98.292969 272.191406 98.292969 Z M 272.191406 98.292969 "/>
<path style="fill:none;stroke-width:0.5;stroke-linecap:butt;stroke-linejoin:miter;stroke:rgb(0%,0%,0%);stroke-opacity:1;stroke-miterlimit:4;" d="M 317.951244 428.411057 C 319.695535 427.610276 321.25503 426.619065 322.102386 424.914964 C 321.958155 423.621018 321.827446 422.068284 321.741809 420.51555 " transform="matrix(0.866667,0,0,0.8,-7.178838,-209.13119)"/>
<path style="fill:none;stroke-width:0.5;stroke-linecap:butt;stroke-linejoin:miter;stroke:rgb(0%,0%,0%);stroke-opacity:1;stroke-miterlimit:4;" d="M 327.132434 426.477464 C 327.132434 426.477464 329.106592 426.76555 330.053107 426.487229 C 332.676304 425.710862 336.160378 423.264573 336.36771 420.535081 C 336.575042 417.732347 336.719273 414.944261 336.669693 412.014573 C 336.6111 408.508714 332.144453 407.004807 332.144453 407.004807 " transform="matrix(0.866667,0,0,0.8,-7.178838,-209.13119)"/>
<path style="fill-rule:nonzero;fill:rgb(100%,47.058824%,9.411765%);fill-opacity:1;stroke-width:0.5;stroke-linecap:butt;stroke-linejoin:miter;stroke:rgb(0%,0%,0%);stroke-opacity:1;stroke-miterlimit:4;" d="M 307.435919 428.508714 C 307.593672 427.283128 310.58646 424.739182 314.606893 424.177659 C 315.233395 424.089768 316.013143 423.913987 316.310619 424.514573 C 316.662181 425.207932 315.82384 425.598557 316.175402 426.438401 C 316.585559 427.410081 317.126424 427.727464 318.528167 428.098557 C 315.5489 430.090745 310.527866 429.914964 307.435919 428.508714 Z M 307.435919 428.508714 " transform="matrix(0.866667,0,0,0.8,-7.178838,-209.13119)"/>
<path style="fill-rule:nonzero;fill:rgb(100%,47.058824%,9.411765%);fill-opacity:1;stroke-width:0.5;stroke-linecap:butt;stroke-linejoin:bevel;stroke:rgb(0%,0%,0%);stroke-opacity:1;stroke-miterlimit:4;" d="M 324.77638 160.324117 C 324.289602 155.289937 320.746933 149.86025 317.091585 149.923727 C 315.01376 150.045797 313.400179 152.858297 313.400179 152.858297 C 312.877342 154.293844 312.692546 158.434469 313.197354 159.655172 C 316.483111 159.830953 317.100599 162.477437 317.871332 164.142477 L 319.773376 164.342672 " transform="matrix(0.866667,0,0,0.8,0.249793,-0.384294)"/>
<path style="fill-rule:nonzero;fill:rgb(100%,100%,100%);fill-opacity:1;stroke-width:0.5;stroke-linecap:butt;stroke-linejoin:miter;stroke:rgb(0%,0%,0%);stroke-opacity:1;stroke-miterlimit:4;" d="M 327.042289 426.41887 C 325.924501 426.028245 324.887842 425.237229 324.346977 424.182542 C 325.559417 424.661057 327.7364 425.222581 328.791088 425.344651 C 329.057013 425.373948 327.213563 426.477464 327.042289 426.41887 Z M 327.042289 426.41887 " transform="matrix(0.866667,0,0,0.8,-7.178838,-209.13119)"/>
<path style="fill-rule:nonzero;fill:rgb(100%,78.431373%,7.45098%);fill-opacity:1;stroke-width:0.5;stroke-linecap:butt;stroke-linejoin:bevel;stroke:rgb(0%,0%,0%);stroke-opacity:1;stroke-miterlimit:4;" d="M 333.320835 421.223557 L 332.89265 419.07512 C 329.656472 417.32219 330.445234 415.832932 330.233395 413.542893 C 330.152265 413.464768 329.219273 412.405198 329.138143 412.331956 C 327.831051 411.184495 326.645655 410.803636 325.622518 410.886643 C 323.715967 411.042893 322.368311 412.805589 321.813924 414.226487 C 323.95485 414.587815 324.432614 415.832932 324.549801 418.210862 C 324.671496 420.681565 327.520054 423.581956 330.19283 423.616136 " transform="matrix(0.866667,0,0,0.8,-7.178838,-209.13119)"/>
<path style="fill:none;stroke-width:0.5;stroke-linecap:round;stroke-linejoin:bevel;stroke:rgb(92.941176%,66.666667%,5.882353%);stroke-opacity:1;stroke-miterlimit:4;" d="M 324.509237 411.804612 C 325.802806 413.010667 327.335258 413.494065 326.816929 415.871995 C 326.294092 418.254807 327.227085 419.153245 329.390547 419.866136 " transform="matrix(0.866667,0,0,0.8,-7.178838,-209.13119)"/>
<path style="fill-rule:nonzero;fill:rgb(100%,100%,100%);fill-opacity:1;stroke-width:0.5;stroke-linecap:butt;stroke-linejoin:miter;stroke:rgb(0%,0%,0%);stroke-opacity:1;stroke-miterlimit:4;" d="M 329.949441 424.050706 C 328.737001 423.479417 327.731893 422.268479 327.38033 420.945237 C 328.737001 421.858323 329.814225 422.51262 331.053708 422.854417 Z M 329.949441 424.050706 " transform="matrix(0.866667,0,0,0.8,-7.178838,-209.13119)"/>
<path style=" stroke:none;fill-rule:nonzero;fill:rgb(92.941176%,66.666667%,5.882353%);fill-opacity:1;" d="M 274.71875 89.042969 C 275.785156 85.296875 278.980469 82.503906 281.492188 83.078125 C 284.003906 83.65625 284.027344 88.65625 281.644531 90.652344 C 284.175781 86.460938 278.28125 83.675781 274.71875 89.042969 Z M 274.71875 89.042969 "/>
<path style="fill:none;stroke-width:0.5;stroke-linecap:butt;stroke-linejoin:miter;stroke:rgb(0%,0%,0%);stroke-opacity:1;stroke-miterlimit:4;" d="M 316.69495 111.784078 C 317.925419 107.101461 321.612318 103.61025 324.510455 104.328023 C 327.408592 105.05068 327.435635 111.30068 324.686236 113.795797 " transform="matrix(0.866667,0,0,0.8,0.249793,-0.384294)"/>
<path style="fill:none;stroke-width:0.5;stroke-linecap:butt;stroke-linejoin:miter;stroke:rgb(0%,0%,0%);stroke-opacity:1;stroke-miterlimit:4;" d="M 299.644169 118.214742 C 293.293508 126.2665 292.667005 137.907125 296.250239 144.108297 C 296.73251 144.938375 298.071152 146.652242 298.954566 146.832906 C 300.054325 145.812398 304.15138 145.348531 306.810635 145.543844 C 304.358712 140.866109 307.941945 134.689352 314.644169 121.608297 " transform="matrix(0.866667,0,0,0.8,0.249793,-0.384294)"/>
<path style="fill:none;stroke-width:0.5;stroke-linecap:butt;stroke-linejoin:miter;stroke:rgb(0%,0%,0%);stroke-opacity:1;stroke-miterlimit:4;" d="M 298.783292 146.759664 C 298.589481 146.764547 296.777582 145.841695 295.619229 145.885641 C 293.496332 145.973531 292.441645 146.07607 291.571753 147.243062 " transform="matrix(0.866667,0,0,0.8,0.249793,-0.384294)"/>
<path style="fill-rule:nonzero;fill:rgb(100%,100%,100%);fill-opacity:1;stroke-width:0.5;stroke-linecap:butt;stroke-linejoin:miter;stroke:rgb(0%,0%,0%);stroke-opacity:1;stroke-miterlimit:4;" d="M 322.061821 424.519456 C 322.49902 424.402268 323.062422 424.163011 323.806112 423.288987 C 322.715366 423.542893 322.327746 423.035081 321.931112 423.010667 Z M 322.061821 424.519456 " transform="matrix(0.866667,0,0,0.8,-7.178838,-209.13119)"/>
<path style="fill-rule:nonzero;fill:rgb(100%,100%,100%);fill-opacity:1;stroke-width:0.414117;stroke-linecap:butt;stroke-linejoin:miter;stroke:rgb(0%,0%,0%);stroke-opacity:1;stroke-miterlimit:4;" d="M 322.444934 446.238206 C 319.213263 444.807542 318.072938 445.564378 315.657073 446.096604 C 316.378227 444.4218 319.181713 442.82512 322.88664 443.547776 C 324.779669 444.280198 323.368912 445.559495 322.444934 446.238206 Z M 322.444934 446.238206 " transform="matrix(0.866667,0,0,0.8,-7.178838,-209.13119)"/>
<path style="fill-rule:nonzero;fill:rgb(100%,100%,100%);fill-opacity:1;stroke-width:0.414117;stroke-linecap:butt;stroke-linejoin:miter;stroke:rgb(0%,0%,0%);stroke-opacity:1;stroke-miterlimit:4;" d="M 321.403768 448.337815 C 318.16759 446.902268 316.148359 447.932542 313.732494 448.464768 C 314.453648 446.789964 318.140547 444.919847 321.845475 445.642503 C 323.738503 446.374925 322.327746 447.654222 321.403768 448.337815 Z M 321.403768 448.337815 " transform="matrix(0.866667,0,0,0.8,-7.178838,-209.13119)"/>
<path style="fill-rule:nonzero;fill:rgb(100%,100%,100%);fill-opacity:1;stroke-width:0.414117;stroke-linecap:butt;stroke-linejoin:miter;stroke:rgb(0%,0%,0%);stroke-opacity:1;stroke-miterlimit:4;" d="M 320.254429 450.681565 C 317.018251 449.250901 314.926905 450.549729 312.515547 451.081956 C 313.232193 449.407151 316.991208 447.268479 320.696136 447.991136 C 322.589164 448.723557 321.178407 450.002854 320.254429 450.681565 Z M 320.254429 450.681565 " transform="matrix(0.866667,0,0,0.8,-7.178838,-209.13119)"/>
<path style="fill-rule:nonzero;fill:rgb(100%,100%,100%);fill-opacity:1;stroke-width:0.414117;stroke-linecap:butt;stroke-linejoin:miter;stroke:rgb(0%,0%,0%);stroke-opacity:1;stroke-miterlimit:4;" d="M 318.906773 452.917893 C 315.670595 451.482347 314.462662 453.25969 312.051304 453.791917 C 312.767951 452.117112 315.643551 449.504807 319.348479 450.222581 C 321.237001 450.959886 319.830751 452.239182 318.906773 452.917893 Z M 318.906773 452.917893 " transform="matrix(0.866667,0,0,0.8,-7.178838,-209.13119)"/>
<path style="fill-rule:nonzero;fill:rgb(100%,100%,100%);fill-opacity:1;stroke-width:0.414117;stroke-linecap:butt;stroke-linejoin:miter;stroke:rgb(0%,0%,0%);stroke-opacity:1;stroke-miterlimit:4;" d="M 317.897157 455.408128 C 315.886941 454.1093 314.543792 454.455979 312.330751 455.876878 C 313.051905 454.19719 314.633936 451.990159 318.338864 452.712815 C 320.231893 453.445237 318.821136 454.724534 317.897157 455.408128 Z M 317.897157 455.408128 " transform="matrix(0.866667,0,0,0.8,-7.178838,-209.13119)"/>
<path style="fill:none;stroke-width:0.5;stroke-linecap:round;stroke-linejoin:miter;stroke:rgb(0%,0%,0%);stroke-opacity:1;stroke-miterlimit:4;" d="M 322.215066 454.705003 C 321.570535 453.220628 320.551905 453.025315 319.393551 452.942307 " transform="matrix(0.866667,0,0,0.8,-7.178838,-209.13119)"/>
<path style="fill:none;stroke-width:0.5;stroke-linecap:round;stroke-linejoin:miter;stroke:rgb(0%,0%,0%);stroke-opacity:1;stroke-miterlimit:4;" d="M 323.197638 452.488206 C 322.5486 451.003831 321.534477 450.808518 320.376124 450.725511 " transform="matrix(0.866667,0,0,0.8,-7.178838,-209.13119)"/>
<path style="fill:none;stroke-width:0.5;stroke-linecap:round;stroke-linejoin:miter;stroke:rgb(0%,0%,0%);stroke-opacity:1;stroke-miterlimit:4;" d="M 324.76164 449.724534 C 324.103588 448.552659 322.602686 448.279222 321.669693 448.41594 " transform="matrix(0.866667,0,0,0.8,-7.178838,-209.13119)"/>
<path style="fill:none;stroke-width:0.5;stroke-linecap:round;stroke-linejoin:miter;stroke:rgb(0%,0%,0%);stroke-opacity:1;stroke-miterlimit:4;" d="M 325.74872 447.288011 C 324.932914 446.365159 323.652866 446.125901 322.868612 446.204026 " transform="matrix(0.866667,0,0,0.8,-7.178838,-209.13119)"/>
<path style=" stroke:none;fill-rule:nonzero;fill:rgb(91.372549%,59.215686%,7.45098%);fill-opacity:0.796078;" d="M 204.148438 230.1875 C 204.148438 230.1875 201.496094 228.085938 199.738281 223.078125 C 197.980469 218.074219 196.875 210.117188 196.875 210.117188 C 201.765625 217.199219 202.84375 224.121094 204.148438 230.1875 Z M 204.148438 230.1875 "/>
<path style="fill:none;stroke-width:0.5;stroke-linecap:butt;stroke-linejoin:miter;stroke:rgb(0%,0%,0%);stroke-opacity:1;stroke-miterlimit:4;" d="M 255.868912 552.024339 C 249.328948 554.392503 238.926304 553.083909 235.771256 526.995042 C 234.108095 513.225511 232.958756 496.589768 236.681713 483.205979 " transform="matrix(0.866667,0,0,0.8,-7.178838,-209.13119)"/>
<path style="fill:none;stroke-width:0.5;stroke-linecap:butt;stroke-linejoin:miter;stroke:rgb(0%,0%,0%);stroke-opacity:1;stroke-miterlimit:4;" d="M 363.392951 402.898362 C 360.156773 387.537034 344.210258 375.754807 337.368311 373.435472 C 338.238203 370.476487 338.319333 362.590745 331.964164 362.541917 C 328.096977 362.51262 321.696737 369.504807 322.007734 377.497972 " transform="matrix(0.866667,0,0,0.8,-7.178838,-209.13119)"/>
<path style=" stroke:none;fill-rule:nonzero;fill:rgb(91.372549%,59.215686%,7.45098%);fill-opacity:0.796078;" d="M 293.640625 106.542969 C 293.632812 106.25 299.53125 117.683594 298.207031 124.257812 L 296.582031 124.042969 C 297.132812 127.863281 297.019531 133.503906 295.882812 137.402344 L 293.640625 137.042969 C 291.996094 142.246094 287.992188 147.859375 285.359375 150.257812 C 290.023438 146.992188 292.265625 144.769531 294.492188 139.117188 L 297.355469 139.542969 C 298.683594 135.660156 298.714844 130.566406 298.207031 126.328125 L 300.371094 126.828125 C 300.414062 118.765625 298.496094 112.105469 293.640625 106.542969 Z M 293.640625 106.542969 "/>
<path style=" stroke:none;fill-rule:nonzero;fill:rgb(91.372549%,59.215686%,7.45098%);fill-opacity:0.796078;" d="M 247.867188 116.472656 C 245.125 119.496094 243.535156 122.519531 242.21875 125.542969 L 243.304688 126.117188 C 241.953125 130.515625 242.28125 134.492188 243.148438 138.1875 C 243.703125 133.59375 243.058594 130.363281 245.082031 125.1875 L 244 124.542969 C 245.496094 120.492188 246.785156 118.804688 247.867188 116.472656 Z M 247.867188 116.472656 "/>
<path style=" stroke:none;fill-rule:nonzero;fill:rgb(91.372549%,59.215686%,7.45098%);fill-opacity:0.796078;" d="M 222.566406 123.828125 C 225.238281 124.464844 226.761719 125.363281 231.695312 125.472656 L 229.917969 126.902344 C 231.417969 127.039062 232.714844 126.605469 234.019531 126.1875 L 234.132812 128.292969 L 236.105469 126.902344 C 235.640625 128.726562 234.585938 129.734375 233.515625 130.722656 L 233.167969 127.402344 C 231.15625 128.160156 229.203125 127.953125 228.058594 127.6875 L 229.144531 126.117188 C 225.890625 125.65625 224.527344 124.628906 222.566406 123.828125 Z M 222.566406 123.828125 "/>
<path style=" stroke:none;fill-rule:nonzero;fill:rgb(91.372549%,59.215686%,7.45098%);fill-opacity:0.796078;" d="M 246.785156 110.472656 C 242.601562 109.628906 238.046875 109.960938 233.089844 110.578125 L 232.933594 111.828125 C 226.035156 112.5625 219.832031 114.726562 215.058594 117.328125 C 221.652344 115.355469 228.375 113.332031 234.867188 112.757812 L 234.867188 111.472656 C 239.121094 111.054688 242.789062 110.425781 246.785156 110.472656 Z M 246.785156 110.472656 "/>
<path style=" stroke:none;fill-rule:nonzero;fill:rgb(91.372549%,59.215686%,7.45098%);fill-opacity:0.796078;" d="M 227.230469 109.011719 C 216.632812 111.214844 207.1875 114.449219 203.660156 117.308594 C 206.527344 116.144531 210.289062 114.527344 215.171875 114.074219 L 214.375 113.050781 C 218.355469 111.816406 224.238281 110.726562 228.71875 110.886719 Z M 227.230469 109.011719 "/>
<path style="fill:none;stroke-width:0.5;stroke-linecap:butt;stroke-linejoin:miter;stroke:rgb(0%,0%,0%);stroke-opacity:1;stroke-miterlimit:4;" d="M 294.414585 394.412034 C 275.222878 395.007737 249.982494 402.156175 243.275763 408.049729 " transform="matrix(0.866667,0,0,0.8,-7.178838,-209.13119)"/>
<path style=" stroke:none;fill-rule:nonzero;fill:rgb(91.372549%,59.215686%,7.45098%);fill-opacity:0.796078;" d="M 203.878906 172.289062 L 204.421875 172.621094 C 202.800781 174.960938 200.789062 179.019531 199.777344 181.820312 L 201.070312 182.226562 C 199.253906 185.871094 199.050781 187.507812 199.21875 190.203125 C 198.34375 187.71875 198.757812 185.457031 199.644531 183.171875 L 198.484375 182.582031 C 199.371094 179.714844 200.640625 175.9375 202.648438 173.289062 L 201.894531 172.980469 C 204.464844 167.824219 209.273438 164.117188 212.410156 164.796875 C 209.550781 165.347656 205.800781 168.304688 203.878906 172.289062 Z M 203.878906 172.289062 "/>
<path style="fill:none;stroke-width:0.5;stroke-linecap:butt;stroke-linejoin:miter;stroke:rgb(0%,0%,0%);stroke-opacity:1;stroke-miterlimit:4;" d="M 319.226785 469.036057 C 319.362001 471.013597 317.856592 477.8593 333.681412 477.371018 C 339.775162 477.180589 351.218972 480.256761 362.725883 480.198167 C 379.253828 480.110276 395.664585 476.448167 395.20485 462.70305 C 394.307914 436.086839 376.738804 415.945237 363.424501 403.054612 " transform="matrix(0.866667,0,0,0.8,-7.178838,-209.13119)"/>
<path style=" stroke:none;fill-rule:nonzero;fill:rgb(91.372549%,59.215686%,7.45098%);fill-opacity:0.796078;" d="M 270.367188 163.960938 C 268.988281 167.289062 268.296875 173.15625 282.011719 172.765625 C 287.292969 172.613281 297.210938 175.074219 307.183594 175.027344 C 316.394531 174.984375 316.792969 174.800781 322.71875 173.433594 L 322.902344 170.636719 C 318.917969 173.8125 309.699219 174.257812 303.554688 174.5625 L 303.964844 172.40625 C 295.84375 174.378906 289.710938 172.191406 282.3125 172.488281 C 282.3125 172.488281 275.410156 172.035156 272.5625 169.554688 C 270.890625 168.101562 270.589844 165.636719 270.367188 163.960938 Z M 270.367188 163.960938 "/>
<path style=" stroke:none;fill-rule:nonzero;fill:rgb(91.372549%,59.215686%,7.45098%);fill-opacity:0.796078;" d="M 335.332031 161.03125 C 335.074219 156.894531 334.167969 152.761719 333.199219 148.625 C 331.40625 141.679688 327.617188 135.882812 323.332031 130.375 C 319.921875 124.988281 310.574219 115.976562 308.023438 113.757812 L 308.246094 114.992188 C 314.058594 119.472656 318.417969 125.128906 322.566406 130.351562 L 320.785156 130.324219 C 325.023438 135.90625 330.328125 141.128906 332.261719 148.261719 L 329.457031 147.984375 C 332.722656 153.628906 334.035156 156.207031 335.332031 161.03125 Z M 335.332031 161.03125 "/>
<path style="fill:none;stroke-width:0.5;stroke-linecap:butt;stroke-linejoin:miter;stroke:rgb(0%,0%,0%);stroke-opacity:1;stroke-miterlimit:4;" d="M 363.492109 403.113206 C 376.797398 416.008714 394.307914 436.130784 395.20485 462.70305 C 395.664585 476.448167 379.253828 480.110276 362.725883 480.198167 C 351.218972 480.256761 339.775162 477.180589 333.681412 477.371018 C 317.856592 477.8593 319.362001 471.013597 319.226785 469.036057 " transform="matrix(0.866667,0,0,0.8,-7.178838,-209.13119)"/>
<path style=" stroke:none;fill-rule:nonzero;fill:rgb(91.372549%,59.215686%,7.45098%);fill-opacity:0.796078;" d="M 330.820312 163.328125 C 330.820312 163.328125 330.484375 165.457031 326.953125 167.472656 C 323.417969 169.488281 308.535156 171.757812 308.535156 171.757812 L 308.070312 168.902344 C 303.066406 169.984375 298.0625 170.769531 293.058594 170.902344 L 292.980469 168.4375 C 288.851562 169.230469 285.117188 169.414062 280.601562 169.152344 C 284.230469 169.480469 287.683594 170.078125 291.820312 169.1875 L 291.820312 171.617188 C 296.773438 171.449219 301.980469 171.222656 307.179688 169.792969 L 307.605469 173.042969 C 307.605469 173.042969 323.917969 170.15625 327.570312 167.757812 C 331.226562 165.359375 330.820312 163.328125 330.820312 163.328125 Z M 330.820312 163.328125 "/>
<path style=" stroke:none;fill-rule:nonzero;fill:rgb(91.372549%,59.215686%,7.45098%);fill-opacity:0.796078;" d="M 200.546875 123.621094 C 200.546875 123.621094 199.96875 128.132812 201.863281 132.949219 C 203.753906 137.761719 210.074219 142.804688 210.125 142.136719 L 210.871094 140.464844 C 214.375 143.863281 215.898438 145.578125 219.953125 148.246094 L 220.882812 147.214844 C 223.902344 149.9375 226.355469 151.582031 230.3125 153.605469 C 227.0625 152.078125 224.394531 151.230469 221.425781 148.421875 L 220.386719 149.5 C 215.769531 146.328125 214.222656 144.773438 211.0625 141.839844 L 210.160156 143.683594 C 209.730469 143.796875 202.621094 137.761719 201.136719 133.308594 C 199.652344 128.859375 200.546875 123.621094 200.546875 123.621094 Z M 200.546875 123.621094 "/>
<path style=" stroke:none;fill-rule:nonzero;fill:rgb(91.372549%,59.215686%,7.45098%);fill-opacity:0.796078;" d="M 205.628906 143.671875 C 215.214844 152.621094 227.867188 155.078125 241.230469 161.105469 C 242.226562 161.554688 244.304688 161.949219 246.109375 160.164062 C 247.144531 159.140625 247.875 157.328125 248.808594 154.566406 C 248.808594 154.566406 246.160156 159.046875 243.835938 159.613281 C 241.457031 160.195312 238.289062 158.820312 235.457031 157.511719 C 232.847656 156.304688 230.222656 154.964844 228.113281 153.730469 L 227.839844 155.253906 C 222.207031 152.722656 214.5625 148.25 211.34375 145.441406 L 210.800781 146.683594 C 208.75 145.996094 205.628906 143.671875 205.628906 143.671875 Z M 205.628906 143.671875 "/>
<path style=" stroke:none;fill-rule:nonzero;fill:rgb(92.941176%,66.666667%,5.882353%);fill-opacity:1;" d="M 257.558594 139.261719 C 255.621094 139.386719 252.675781 139.511719 250.207031 140.640625 C 247.515625 141.875 242.730469 149.152344 239.3125 149.171875 C 242.613281 151.101562 245.707031 145.699219 248.386719 143.132812 C 251.066406 140.566406 255.453125 139.660156 257.558594 139.261719 Z M 257.558594 139.261719 "/>
<path style="fill:none;stroke-width:0.5;stroke-linecap:butt;stroke-linejoin:miter;stroke:rgb(0%,0%,0%);stroke-opacity:1;stroke-miterlimit:4;" d="M 305.466268 435.491136 C 303.16759 435.207932 299.746616 435.642503 296.983696 437.214768 C 294.225282 438.787034 289.862301 444.094651 288.591268 445.608323 C 287.324741 447.121995 286.17991 447.98137 284.507734 447.659104 " transform="matrix(0.866667,0,0,0.8,-7.178838,-209.13119)"/>
<path style="fill:none;stroke-width:0.5;stroke-linecap:butt;stroke-linejoin:miter;stroke:rgb(0%,0%,0%);stroke-opacity:1;stroke-miterlimit:4;" d="M 245.547398 441.003831 C 256.608095 452.190354 271.206953 455.261643 286.626124 462.795823 C 288.438023 463.679612 292.228588 462.800706 293.057914 460.964768 L 295.446737 454.060472 " transform="matrix(0.866667,0,0,0.8,-7.178838,-209.13119)"/>
<path style=" stroke:none;fill-rule:nonzero;fill:rgb(92.941176%,66.666667%,5.882353%);fill-opacity:1;" d="M 314.542969 187.589844 C 316.027344 190.585938 316.003906 195.1875 313.449219 199.207031 L 312.570312 198.296875 C 309.945312 201.828125 308.835938 203.128906 306.210938 205.375 L 305.109375 203.667969 C 302.152344 207.175781 297.671875 211.59375 294.953125 214.359375 C 297.671875 212.238281 302.445312 208.511719 304.890625 205.890625 L 305.65625 207.101562 C 308.5625 204.433594 309.621094 204.085938 312.460938 200.722656 L 313.667969 201.125 C 318.789062 194.667969 316.851562 189.316406 314.542969 187.589844 Z M 314.542969 187.589844 "/>
<path style="fill-rule:nonzero;fill:rgb(99.607843%,94.901961%,0%);fill-opacity:1;stroke-width:0.5;stroke-linecap:butt;stroke-linejoin:miter;stroke:rgb(0%,0%,0%);stroke-opacity:1;stroke-miterlimit:4;" d="M 347.604186 485.925706 C 347.514042 485.925706 339.06302 489.656175 334.470172 497.161057 C 327.046794 509.299729 325.924498 524.592698 318.181109 536.682542 C 314.588861 542.297776 309.229787 547.893479 309.878825 554.524339 C 310.189823 557.693284 311.379727 561.013597 316.937119 561.565354 C 322.499018 562.117112 329.859294 557.742112 341.32564 560.100511 C 342.213561 560.432542 342.34427 559.949143 343.038381 559.504807 C 350.218369 555.632737 365.407672 551.584886 365.407672 551.584886 C 362.126422 541.819261 332.6132 542.385667 319.195232 547.795823 " transform="matrix(0.866667,0,0,0.8,-7.178836,-209.13119)"/>
<path style="fill-rule:nonzero;fill:rgb(100%,100%,100%);fill-opacity:1;stroke-width:0.5;stroke-linecap:butt;stroke-linejoin:miter;stroke:rgb(0%,0%,0%);stroke-opacity:1;stroke-miterlimit:4;" d="M 343.05641 559.338792 C 347.401361 561.902268 347.915184 564.241136 349.271854 567.458909 C 350.759234 565.090745 352.710857 560.212815 347.716866 556.511643 C 344.999018 555.01262 342.547095 556.877854 343.05641 559.338792 Z M 343.05641 559.338792 " transform="matrix(0.866667,0,0,0.8,-7.178836,-209.13119)"/>
<path style="fill-rule:nonzero;fill:rgb(100%,100%,100%);fill-opacity:1;stroke-width:0.5;stroke-linecap:butt;stroke-linejoin:miter;stroke:rgb(0%,0%,0%);stroke-opacity:1;stroke-miterlimit:4;" d="M 349.361998 556.755784 C 353.003825 559.661057 353.229186 562.2343 354.054006 565.354417 C 355.726181 563.381761 357.443429 558.865159 353.355388 554.82219 C 351.304607 553.791917 349.560316 555.310472 349.361998 556.755784 Z M 349.361998 556.755784 " transform="matrix(0.866667,0,0,0.8,-7.178836,-209.13119)"/>
<path style="fill-rule:nonzero;fill:rgb(100%,100%,100%);fill-opacity:1;stroke-width:0.5;stroke-linecap:butt;stroke-linejoin:miter;stroke:rgb(0%,0%,0%);stroke-opacity:1;stroke-miterlimit:4;" d="M 354.112599 555.110276 C 357.429907 557.800706 357.637239 560.183518 358.385436 563.074143 C 359.796193 561.379807 360.796794 557.121995 357.988801 553.533128 C 356.163381 551.897386 354.33796 553.743089 354.112599 555.110276 Z M 354.112599 555.110276 " transform="matrix(0.866667,0,0,0.8,-7.178836,-209.13119)"/>
<path style="fill-rule:nonzero;fill:rgb(100%,100%,100%);fill-opacity:1;stroke-width:0.5;stroke-linecap:butt;stroke-linejoin:miter;stroke:rgb(0%,0%,0%);stroke-opacity:1;stroke-miterlimit:4;" d="M 358.371914 553.32805 C 361.229486 555.442307 361.810917 558.1718 362.541085 560.549729 C 363.740003 558.972581 364.997515 555.041917 361.75683 552.068284 C 360.120712 551.330979 358.471073 552.205003 358.371914 553.32805 Z M 358.371914 553.32805 " transform="matrix(0.866667,0,0,0.8,-7.178836,-209.13119)"/>
<path style="fill-rule:nonzero;fill:rgb(100%,100%,100%);fill-opacity:1;stroke-width:0.5;stroke-linecap:butt;stroke-linejoin:miter;stroke:rgb(0%,0%,0%);stroke-opacity:1;stroke-miterlimit:4;" d="M 362.365304 552.707932 C 365.61951 554.397386 366.209955 556.365159 367.336758 558.664964 C 368.301301 556.863206 368.346373 552.624925 364.56933 550.124925 C 363.023357 550.32512 362.288681 551.550706 362.365304 552.707932 Z M 362.365304 552.707932 " transform="matrix(0.866667,0,0,0.8,-7.178836,-209.13119)"/>
<path style="fill:none;stroke-width:0.5;stroke-linecap:butt;stroke-linejoin:miter;stroke:rgb(0%,0%,0%);stroke-opacity:1;stroke-miterlimit:4;" d="M 340.087376 295.626852 C 340.384852 293.844625 337.067544 291.14443 336.42752 291.876852 " transform="matrix(0.866667,0,0,0.8,0.249795,-0.384294)"/>
<path style="fill:none;stroke-width:0.5;stroke-linecap:butt;stroke-linejoin:miter;stroke:rgb(0%,0%,0%);stroke-opacity:1;stroke-miterlimit:4;" d="M 352.895652 554.744065 C 353.134535 553.332932 350.461758 551.194261 349.947936 551.775315 " transform="matrix(0.866667,0,0,0.8,-7.178836,-209.13119)"/>
<path style="fill:none;stroke-width:0.5;stroke-linecap:butt;stroke-linejoin:miter;stroke:rgb(0%,0%,0%);stroke-opacity:1;stroke-miterlimit:4;" d="M 357.267648 553.13762 C 357.53808 551.809495 354.540785 549.792893 353.963861 550.339768 " transform="matrix(0.866667,0,0,0.8,-7.178836,-209.13119)"/>
<path style="fill:none;stroke-width:0.5;stroke-linecap:butt;stroke-linejoin:miter;stroke:rgb(0%,0%,0%);stroke-opacity:1;stroke-miterlimit:4;" d="M 361.824438 551.975511 C 362.094871 550.647386 359.020953 548.630784 358.430508 549.177659 " transform="matrix(0.866667,0,0,0.8,-7.178836,-209.13119)"/>
<path style="fill-rule:nonzero;fill:rgb(100%,97.647059%,49.803922%);fill-opacity:1;stroke-width:0.5;stroke-linecap:butt;stroke-linejoin:miter;stroke:rgb(0%,0%,0%);stroke-opacity:1;stroke-miterlimit:4;" d="M 307.86983 145.094625 C 305.796513 142.296773 309.690743 139.918844 310.623736 140.285055 C 311.637859 140.685445 312.025479 143.756734 310.357811 145.856344 " transform="matrix(0.866667,0,0,0.8,0.249793,-0.384294)"/>
<path style=" stroke:none;fill-rule:nonzero;fill:rgb(0%,0%,0%);fill-opacity:1;" d="M 269.707031 116.042969 C 270.039062 115.425781 269.683594 114.648438 268.90625 114.304688 C 268.132812 113.964844 267.234375 114.191406 266.898438 114.808594 C 266.566406 115.429688 266.921875 116.207031 267.699219 116.546875 C 268.472656 116.886719 269.371094 116.660156 269.707031 116.042969 Z M 269.707031 116.042969 "/>
<path style=" stroke:none;fill-rule:nonzero;fill:rgb(100%,97.647059%,49.803922%);fill-opacity:1;" d="M 269.3125 114.695312 C 269.46875 114.40625 269.25 114.019531 268.824219 113.832031 C 268.398438 113.644531 267.929688 113.730469 267.769531 114.019531 C 267.613281 114.308594 267.832031 114.695312 268.257812 114.882812 C 268.683594 115.070312 269.15625 114.988281 269.3125 114.695312 Z M 269.3125 114.695312 "/>
<path style=" stroke:none;fill-rule:nonzero;fill:rgb(92.941176%,66.666667%,5.882353%);fill-opacity:1;" d="M 275.039062 205.839844 C 273.828125 207.746094 272.933594 210.125 271.273438 210.664062 C 271.195312 213.804688 269.8125 216.964844 268.402344 220.140625 C 271.558594 215.886719 273.300781 210.75 275.039062 205.839844 Z M 275.039062 205.839844 "/>
<path style=" stroke:none;fill-rule:nonzero;fill:rgb(92.941176%,66.666667%,5.882353%);fill-opacity:1;" d="M 249.578125 191.265625 C 244.574219 191.15625 239.722656 192.773438 235.589844 195.570312 C 230.980469 198.6875 226.265625 202.742188 221.832031 209.085938 C 219.613281 212.261719 217.386719 216.058594 216.589844 221.316406 L 216.320312 218.867188 C 217.792969 211.359375 222.597656 205.105469 226.644531 200.796875 C 233.410156 193.601562 241.070312 191.039062 249.578125 191.265625 Z M 249.578125 191.265625 "/>
<path style=" stroke:none;fill-rule:nonzero;fill:rgb(92.941176%,66.666667%,5.882353%);fill-opacity:1;" d="M 273.601562 146.589844 C 276.65625 146.460938 278.65625 148.332031 278.855469 150.867188 C 277.757812 148.449219 275.703125 146.878906 273.648438 146.710938 C 273.539062 146.703125 273.707031 146.617188 273.601562 146.589844 Z M 273.601562 146.589844 "/>
<path style=" stroke:none;fill-rule:nonzero;fill:rgb(92.941176%,66.666667%,5.882353%);fill-opacity:1;" d="M 292.75 180.464844 C 285.269531 185.695312 280.195312 193.390625 276.609375 202.617188 C 278.214844 197.742188 280.121094 192.925781 283.164062 188.316406 C 286.457031 183.804688 289.59375 182.296875 292.75 180.464844 Z M 292.75 180.464844 "/>
<path style="fill:none;stroke-width:0.5;stroke-linecap:butt;stroke-linejoin:miter;stroke:rgb(0%,0%,0%);stroke-opacity:1;stroke-miterlimit:4;" d="M 294.820234 393.967698 C 294.977987 402.16594 297.57414 406.247972 300.102686 408.284104 C 301.044693 407.51262 301.188924 407.746995 301.950643 408.005784 C 303.099982 408.401292 303.884237 409.031175 305.002025 411.843675 C 307.593672 418.386643 306.99872 422.742112 307.480991 428.523362 " transform="matrix(0.866667,0,0,0.8,-7.178838,-209.13119)"/>
<path style="fill:none;stroke-width:0.5;stroke-linecap:butt;stroke-linejoin:miter;stroke:rgb(0%,0%,0%);stroke-opacity:1;stroke-miterlimit:4;" d="M 355.992109 449.451097 C 367.336761 436.687425 366.250523 416.45305 363.392951 402.898362 " transform="matrix(0.866667,0,0,0.8,-7.178838,-209.13119)"/>
<path style=" stroke:none;fill-rule:nonzero;fill:rgb(92.941176%,66.666667%,5.882353%);fill-opacity:1;" d="M 275.382812 119.300781 C 277.421875 119.71875 278.640625 120.898438 279.636719 122.183594 C 280.984375 123.925781 281.625 125.894531 281.851562 127.964844 C 280.484375 127.675781 279.191406 129.484375 278.449219 130.289062 C 278.175781 130.582031 277.417969 131 277.0625 131.128906 C 276.8125 131.710938 276.042969 132.035156 275.769531 132.144531 C 276.476562 132.53125 278.703125 131.941406 279.589844 131.609375 C 281.601562 130.859375 282.902344 129.695312 283.320312 129.152344 L 282.570312 127.980469 C 282.476562 125.003906 281.257812 122.847656 280.175781 121.476562 C 278.550781 119.421875 276.035156 118.683594 275.382812 119.300781 Z M 275.382812 119.300781 "/>
<path style="fill:none;stroke-width:0.5;stroke-linecap:butt;stroke-linejoin:bevel;stroke:rgb(0%,0%,0%);stroke-opacity:1;stroke-miterlimit:4;" d="M 332.144453 406.975511 C 332.144453 406.975511 336.6111 408.4843 336.669693 411.985276 C 336.72378 414.914964 336.575042 417.70305 336.36771 420.505784 C 336.160378 423.235276 332.676304 425.681565 330.053107 426.457932 C 329.106592 426.736253 326.501424 427.239182 326.285078 426.394456 L 328.394453 425.320237 C 329.435619 424.695237 330.301003 422.908128 331.612602 421.951097 C 332.157975 421.550706 332.910679 421.623948 333.347878 421.22844 C 332.8611 416.194261 329.318431 410.764573 325.663083 410.82805 " transform="matrix(0.866667,0,0,0.8,-7.178838,-209.13119)"/>
<path style="fill-rule:nonzero;fill:rgb(100%,100%,100%);fill-opacity:1;stroke-width:0.414117;stroke-linecap:butt;stroke-linejoin:miter;stroke:rgb(0%,0%,0%);stroke-opacity:1;stroke-miterlimit:4;" d="M 308.652866 441.101487 C 311.388744 443.347581 311.258035 445.398362 311.866508 447.795823 C 313.038383 446.399339 313.1736 442.47844 310.8614 439.495042 C 309.355991 438.13762 308.846676 439.968675 308.652866 441.101487 Z M 308.652866 441.101487 " transform="matrix(0.866667,0,0,0.8,-7.178838,-209.13119)"/>
<path style="fill-rule:nonzero;fill:rgb(100%,100%,100%);fill-opacity:1;stroke-width:0.414117;stroke-linecap:butt;stroke-linejoin:miter;stroke:rgb(0%,0%,0%);stroke-opacity:1;stroke-miterlimit:4;" d="M 307.251124 442.976487 C 309.987001 445.217698 309.788684 447.683518 310.397157 450.080979 C 311.569032 448.684495 311.771857 444.35344 309.459657 441.370042 C 307.949741 440.01262 307.440426 441.843675 307.251124 442.976487 Z M 307.251124 442.976487 " transform="matrix(0.866667,0,0,0.8,-7.178838,-209.13119)"/>
<path style="fill-rule:nonzero;fill:rgb(100%,100%,100%);fill-opacity:1;stroke-width:0.414117;stroke-linecap:butt;stroke-linejoin:miter;stroke:rgb(0%,0%,0%);stroke-opacity:1;stroke-miterlimit:4;" d="M 305.6736 445.061448 C 308.409477 447.302659 308.003828 449.084886 308.612301 451.482347 C 309.788684 450.085862 310.189826 446.438401 307.877626 443.455003 C 306.372217 442.092698 305.862902 443.928636 305.6736 445.061448 Z M 305.6736 445.061448 " transform="matrix(0.866667,0,0,0.8,-7.178838,-209.13119)"/>
<path style="fill-rule:nonzero;fill:rgb(100%,100%,100%);fill-opacity:1;stroke-width:0.414117;stroke-linecap:butt;stroke-linejoin:miter;stroke:rgb(0%,0%,0%);stroke-opacity:1;stroke-miterlimit:4;" d="M 304.285378 447.268479 C 307.021256 449.514573 306.14235 451.2968 305.86741 453.694261 C 307.584657 452.297776 308.801604 448.645432 306.489405 445.662034 C 304.983996 444.304612 304.474681 446.14055 304.285378 447.268479 Z M 304.285378 447.268479 " transform="matrix(0.866667,0,0,0.8,-7.178838,-209.13119)"/>
<path style="fill-rule:nonzero;fill:rgb(100%,100%,100%);fill-opacity:1;stroke-width:0.414;stroke-linecap:square;stroke-linejoin:miter;stroke:rgb(0%,0%,0%);stroke-opacity:1;stroke-miterlimit:4;" d="M 303.379429 449.348557 C 304.195234 450.183518 304.073539 452.04387 303.893251 454.016526 C 305.069633 452.620042 306.354188 450.666917 304.722578 447.683518 C 303.447037 446.531175 302.978287 447.952073 303.009838 448.542893 C 303.041388 449.138597 303.090967 449.055589 303.379429 449.348557 Z M 303.379429 449.348557 " transform="matrix(0.866667,0,0,0.8,-7.178838,-209.13119)"/>
<path style="fill:none;stroke-width:0.5;stroke-linecap:round;stroke-linejoin:miter;stroke:rgb(0%,0%,0%);stroke-opacity:1;stroke-miterlimit:4;" d="M 304.132133 447.219651 C 303.938323 445.613206 303.018852 445.13469 301.937121 444.719651 " transform="matrix(0.866667,0,0,0.8,-7.178838,-209.13119)"/>
<path style="fill:none;stroke-width:0.5;stroke-linecap:round;stroke-linejoin:miter;stroke:rgb(0%,0%,0%);stroke-opacity:1;stroke-miterlimit:4;" d="M 305.556412 444.934495 C 305.362602 443.32805 304.443131 442.849534 303.3614 442.434495 " transform="matrix(0.866667,0,0,0.8,-7.178838,-209.13119)"/>
<path style="fill:none;stroke-width:0.5;stroke-linecap:round;stroke-linejoin:miter;stroke:rgb(0%,0%,0%);stroke-opacity:1;stroke-miterlimit:4;" d="M 307.115907 442.961839 C 306.922097 441.355393 305.475282 440.471604 304.560318 440.251878 " transform="matrix(0.866667,0,0,0.8,-7.178838,-209.13119)"/>
<path style="fill:none;stroke-width:0.5;stroke-linecap:round;stroke-linejoin:miter;stroke:rgb(0%,0%,0%);stroke-opacity:1;stroke-miterlimit:4;" d="M 308.639345 440.6718 C 308.450042 439.065354 307.003227 438.176682 306.088263 437.956956 " transform="matrix(0.866667,0,0,0.8,-7.178838,-209.13119)"/>
<g clip-path="url(#clip9)" clip-rule="nonzero">
<g clip-path="url(#clip10)" clip-rule="nonzero">
<path style=" stroke:none;fill-rule:nonzero;fill:rgb(100%,100%,100%);fill-opacity:1;" d="M 200.761719 83.21875 C 185.878906 96.875 204.019531 135.992188 241.273438 170.585938 C 278.53125 205.179688 320.785156 222.132812 335.664062 208.476562 C 350.546875 194.820312 332.425781 155.722656 295.167969 121.128906 C 257.914062 86.535156 215.640625 69.5625 200.761719 83.21875 Z M 202.898438 85.203125 C 216.59375 72.640625 256.941406 89.605469 293.019531 123.101562 C 329.09375 156.597656 347.21875 193.925781 333.527344 206.492188 C 319.832031 219.058594 279.5 202.109375 243.425781 168.613281 C 207.351562 135.117188 189.207031 97.769531 202.898438 85.203125 Z M 202.898438 85.203125 "/>
</g>
</g>
<g clip-path="url(#clip11)" clip-rule="nonzero">
<g clip-path="url(#clip12)" clip-rule="nonzero">
<path style="fill:none;stroke-width:0.5;stroke-linecap:butt;stroke-linejoin:miter;stroke:rgb(0%,0%,0%);stroke-opacity:1;stroke-miterlimit:4;" d="M 240.219635 364.957058 C 223.047159 382.02737 243.978649 430.923854 286.963926 474.166042 C 329.953709 517.408229 378.708217 538.599636 395.876185 521.529323 C 413.048661 504.459011 392.139707 455.58694 349.149923 412.344753 C 306.164647 369.102565 257.387604 347.886745 240.219635 364.957058 Z M 242.68508 367.437526 C 258.487363 351.734401 305.042351 372.940456 346.670957 414.810573 C 388.295056 456.68069 409.208517 503.340847 393.410741 519.048854 C 377.608457 534.756862 331.071498 513.570339 289.447399 471.700222 C 247.823301 429.830104 226.887303 383.145534 242.68508 367.437526 Z M 242.68508 367.437526 " transform="matrix(0.866667,0,0,0.8,-7.428632,-208.746896)"/>
</g>
</g>
<g clip-path="url(#clip13)" clip-rule="nonzero">
<g clip-path="url(#clip14)" clip-rule="nonzero">
<path style=" stroke:none;fill-rule:nonzero;fill:url(#linear3);" d="M 290.328125 196.539062 L 304.726562 196.539062 L 304.726562 215.632812 L 290.328125 215.632812 Z M 290.328125 196.539062 "/>
</g>
</g>
<g clip-path="url(#clip15)" clip-rule="nonzero">
<path style=" stroke:none;fill-rule:nonzero;fill:rgb(100%,100%,100%);fill-opacity:1;" d="M 267.097656 66.058594 C 246.113281 66.210938 229.441406 105.878906 229.859375 154.65625 C 230.277344 203.433594 247.632812 242.828125 268.613281 242.675781 C 289.597656 242.523438 306.273438 202.878906 305.851562 154.101562 C 305.433594 105.324219 288.082031 65.902344 267.097656 66.058594 Z M 267.121094 68.855469 C 286.429688 68.714844 302.414062 106.890625 302.820312 154.125 C 303.226562 201.355469 287.898438 239.734375 268.589844 239.875 C 249.28125 240.019531 233.296875 201.867188 232.894531 154.636719 C 232.488281 107.402344 247.8125 69 267.121094 68.855469 Z M 267.121094 68.855469 "/>
</g>
<g clip-path="url(#clip16)" clip-rule="nonzero">
<path style="fill:none;stroke-width:0.5;stroke-linecap:butt;stroke-linejoin:miter;stroke:rgb(0%,0%,0%);stroke-opacity:1;stroke-miterlimit:4;" d="M 316.761101 343.506862 C 292.548361 343.697292 273.311582 393.282253 273.793854 454.253933 C 274.276125 515.225612 294.301666 564.468776 318.509899 564.278347 C 342.72264 564.087917 361.963926 514.532253 361.477147 453.560573 C 360.994875 392.588893 340.973842 343.31155 316.761101 343.506862 Z M 316.788145 347.002956 C 339.067291 346.827175 357.510801 394.546901 357.979551 453.58987 C 358.448301 512.627956 340.762003 560.601589 318.482856 560.77737 C 296.203709 560.958034 277.7602 513.267604 277.295957 454.229518 C 276.827207 395.18655 294.508998 347.18362 316.788145 347.002956 Z M 316.788145 347.002956 " transform="matrix(0.866667,0,0,0.8,-7.428632,-208.746896)"/>
</g>
<g clip-path="url(#clip17)" clip-rule="nonzero">
<g clip-path="url(#clip18)" clip-rule="nonzero">
<path style=" stroke:none;fill-rule:nonzero;fill:url(#linear4);" d="M 297.226562 166.863281 L 291.542969 154.652344 L 310.546875 147.113281 L 316.230469 159.328125 Z M 297.226562 166.863281 "/>
</g>
</g>
<g clip-path="url(#clip19)" clip-rule="nonzero">
<g clip-path="url(#clip20)" clip-rule="nonzero">
<path style=" stroke:none;fill-rule:nonzero;fill:url(#linear5);" d="M 242.050781 193.9375 L 251.492188 203.976562 L 235.871094 216.488281 L 226.429688 206.449219 Z M 242.050781 193.9375 "/>
</g>
</g>
<g clip-path="url(#clip21)" clip-rule="nonzero">
<g clip-path="url(#clip22)" clip-rule="nonzero">
<path style=" stroke:none;fill-rule:nonzero;fill:rgb(100%,100%,100%);fill-opacity:1;" d="M 333.972656 82.808594 C 319.175781 69.074219 276.800781 85.816406 239.324219 120.207031 C 201.847656 154.597656 183.480469 193.601562 198.273438 207.335938 C 213.070312 221.074219 255.429688 204.347656 292.902344 169.957031 C 330.378906 135.566406 348.765625 96.546875 333.972656 82.808594 Z M 331.820312 84.785156 C 345.433594 97.421875 327.050781 134.671875 290.765625 167.96875 C 254.476562 201.269531 214.039062 218 200.425781 205.363281 C 186.8125 192.722656 205.175781 155.492188 241.460938 122.191406 C 277.75 88.894531 318.207031 72.144531 331.820312 84.785156 Z M 331.820312 84.785156 "/>
</g>
</g>
<g clip-path="url(#clip23)" clip-rule="nonzero">
<g clip-path="url(#clip24)" clip-rule="nonzero">
<path style="fill:none;stroke-width:0.5;stroke-linecap:butt;stroke-linejoin:miter;stroke:rgb(0%,0%,0%);stroke-opacity:1;stroke-miterlimit:4;" d="M 393.924563 364.444362 C 376.851245 347.276393 327.957015 368.204128 284.714827 411.192409 C 241.47264 454.18069 220.279731 502.935573 237.348541 520.103542 C 254.421858 537.276393 303.29806 516.36819 346.535741 473.379909 C 389.777928 430.391628 410.993373 381.617214 393.924563 364.444362 Z M 391.441089 366.915065 C 407.148721 382.710964 385.937784 429.273464 344.070296 470.894558 C 302.198301 512.520534 255.539647 533.43362 239.832015 517.637722 C 224.124383 501.83694 245.312784 455.298854 287.180272 413.672878 C 329.052267 372.051784 375.733457 351.114284 391.441089 366.915065 Z M 391.441089 366.915065 " transform="matrix(0.866667,0,0,0.8,-7.428632,-208.746896)"/>
</g>
</g>
<g clip-path="url(#clip25)" clip-rule="nonzero">
<g clip-path="url(#clip26)" clip-rule="nonzero">
<path style=" stroke:none;fill-rule:nonzero;fill:url(#linear6);" d="M 228.9375 227.148438 L 196.125 233.878906 L 185.65625 190.378906 L 218.46875 183.648438 Z M 228.9375 227.148438 "/>
</g>
</g>
<path style="fill-rule:nonzero;fill:rgb(99.607843%,94.901961%,0%);fill-opacity:1;stroke-width:0.5;stroke-linecap:butt;stroke-linejoin:miter;stroke:rgb(0%,0%,0%);stroke-opacity:1;stroke-miterlimit:4;" d="M 234.653232 507.188502 C 235.324806 506.446314 239.1334 505.303736 238.930575 508.077174 C 238.61507 512.315455 236.190191 511.553736 235.090431 511.197291 C 234.684782 510.816432 233.571501 508.95608 234.653232 507.188502 Z M 234.653232 507.188502 " transform="matrix(0.866667,0,0,0.8,-7.428634,-208.746895)"/>
<path style="fill:none;stroke-width:0.5;stroke-linecap:butt;stroke-linejoin:miter;stroke:rgb(0%,0%,0%);stroke-opacity:1;stroke-miterlimit:4;" d="M 238.989169 508.086939 C 239.696801 507.066432 244.294157 506.558619 243.744277 509.292994 C 242.743676 514.288111 238.637607 513.042994 238.119277 511.031275 " transform="matrix(0.866667,0,0,0.8,-7.428634,-208.746895)"/>
<path style="fill:none;stroke-width:0.5;stroke-linecap:butt;stroke-linejoin:miter;stroke:rgb(0%,0%,0%);stroke-opacity:1;stroke-miterlimit:4;" d="M 243.694698 509.795924 C 245.384902 508.951197 250.829614 508.770533 249.504494 512.872096 C 247.913448 517.803736 242.130695 516.900416 242.450707 512.247096 " transform="matrix(0.866667,0,0,0.8,-7.428634,-208.746895)"/>
<path style="fill-rule:nonzero;fill:rgb(99.607843%,94.901961%,0%);fill-opacity:1;stroke-width:0.5;stroke-linecap:butt;stroke-linejoin:miter;stroke:rgb(0%,0%,0%);stroke-opacity:1;stroke-miterlimit:4;" d="M 256.675467 514.957057 C 258.262006 514.239283 263.765311 514.161158 263.950107 517.3594 C 264.05828 519.30276 263.15233 522.623072 260.222643 523.355494 C 257.292955 524.087916 255.607258 520.264674 255.111465 518.682643 " transform="matrix(0.866667,0,0,0.8,-7.428634,-208.746895)"/>
<path style="fill:none;stroke-width:0.5;stroke-linecap:butt;stroke-linejoin:miter;stroke:rgb(0%,0%,0%);stroke-opacity:1;stroke-miterlimit:4;" d="M 241.171878 250.24414 C 241.311601 249.145507 247.874101 249.702148 248.05439 252.895507 C 248.16707 254.838866 246.56701 257.846679 243.952827 258.515624 C 241.338645 259.184569 239.14814 256.064452 239.215748 254.482421 " transform="matrix(0.866667,0,0,0.8,-0.00000248021,0.000000735906)"/>
<path style="fill-rule:nonzero;fill:rgb(100%,100%,100%);fill-opacity:1;stroke-width:0.5;stroke-linecap:butt;stroke-linejoin:miter;stroke:rgb(0%,0%,0%);stroke-opacity:1;stroke-miterlimit:4;" d="M 258.978652 521.622096 C 255.774025 524.89358 255.859662 527.432643 255.42697 530.572291 C 253.560984 528.848658 251.816693 523.897486 255.323304 519.468775 C 257.243376 519.087916 258.609061 520.235377 258.978652 521.622096 Z M 258.978652 521.622096 " transform="matrix(0.866667,0,0,0.8,-7.428634,-208.746895)"/>
<path style="fill-rule:nonzero;fill:rgb(100%,100%,100%);fill-opacity:1;stroke-width:0.5;stroke-linecap:butt;stroke-linejoin:miter;stroke:rgb(0%,0%,0%);stroke-opacity:1;stroke-miterlimit:4;" d="M 252.285443 518.570338 C 249.707318 521.993189 250.090431 524.336939 250.072402 527.305689 C 248.129794 525.928736 245.916753 521.548853 248.634602 517.012721 C 250.441994 516.33401 251.803171 517.54983 252.285443 518.570338 Z M 252.285443 518.570338 " transform="matrix(0.866667,0,0,0.8,-7.428634,-208.746895)"/>
<path style="fill-rule:nonzero;fill:rgb(100%,100%,100%);fill-opacity:1;stroke-width:0.5;stroke-linecap:butt;stroke-linejoin:miter;stroke:rgb(0%,0%,0%);stroke-opacity:1;stroke-miterlimit:4;" d="M 246.786645 515.582057 C 244.460924 518.667994 244.807979 520.782252 244.78995 523.458033 C 243.041152 522.217799 241.03995 518.267603 243.491873 514.175807 C 245.542655 513.692408 246.015912 514.786158 246.786645 515.582057 Z M 246.786645 515.582057 " transform="matrix(0.866667,0,0,0.8,-7.428634,-208.746895)"/>
<path style="fill-rule:nonzero;fill:rgb(100%,100%,100%);fill-opacity:1;stroke-width:0.5;stroke-linecap:butt;stroke-linejoin:miter;stroke:rgb(0%,0%,0%);stroke-opacity:1;stroke-miterlimit:4;" d="M 242.036044 512.759791 C 239.967234 516.026393 240.481056 518.106471 240.679373 520.772486 C 238.835924 519.678736 236.523724 515.899439 238.642114 511.626978 C 240.42697 511.02151 241.23376 511.885768 242.036044 512.759791 Z M 242.036044 512.759791 " transform="matrix(0.866667,0,0,0.8,-7.428634,-208.746895)"/>
<path style="fill-rule:nonzero;fill:rgb(100%,100%,100%);fill-opacity:1;stroke-width:0.5;stroke-linecap:butt;stroke-linejoin:miter;stroke:rgb(0%,0%,0%);stroke-opacity:1;stroke-miterlimit:4;" d="M 237.492775 511.075221 C 236.005395 513.848658 236.541753 515.508814 236.861765 517.662135 C 235.297763 516.880885 233.201909 513.946314 234.67126 510.352564 C 235.928772 509.639674 236.731056 510.303736 237.492775 511.075221 Z M 237.492775 511.075221 " transform="matrix(0.866667,0,0,0.8,-7.428634,-208.746895)"/>
<g clip-path="url(#clip27)" clip-rule="nonzero">
<g clip-path="url(#clip28)" clip-rule="nonzero">
<path style=" stroke:none;fill-rule:nonzero;fill:url(#linear7);" d="M 276.582031 246.777344 L 262.976562 251.132812 L 256.199219 233.09375 L 269.804688 228.738281 Z M 276.582031 246.777344 "/>
</g>
</g>
<path style="fill-rule:nonzero;fill:rgb(99.607843%,94.901961%,0%);fill-opacity:1;stroke-width:0.5;stroke-linecap:round;stroke-linejoin:miter;stroke:rgb(0%,0%,0%);stroke-opacity:1;stroke-miterlimit:4;" d="M 318.18538 536.685573 C 314.588625 542.295925 308.346137 548.272487 308.995176 554.903347 C 309.432375 558.448268 310.861161 561.036159 316.432075 561.441433 C 318.37919 561.578151 321.376486 560.831081 322.570897 559.981472 " transform="matrix(0.866667,0,0,0.8,-7.428632,-208.746896)"/>
<g clip-path="url(#clip29)" clip-rule="nonzero">
<g clip-path="url(#clip30)" clip-rule="nonzero">
<path style=" stroke:none;fill-rule:nonzero;fill:url(#linear8);" d="M 276.070312 175.433594 L 252.136719 180.5 L 257.589844 202.449219 L 281.523438 197.382812 Z M 276.070312 175.433594 "/>
</g>
</g>
<g clip-path="url(#clip31)" clip-rule="nonzero">
<g clip-path="url(#clip32)" clip-rule="nonzero">
<path style="fill-rule:nonzero;fill:rgb(100%,100%,100%);fill-opacity:1;stroke-width:0.5;stroke-linecap:butt;stroke-linejoin:miter;stroke:rgb(0%,0%,0%);stroke-opacity:1;stroke-miterlimit:4;" d="M 240.219631 364.957054 C 223.047155 382.027367 243.978645 430.923851 286.963922 474.166038 C 329.953705 517.408226 378.708213 538.599632 395.876181 521.52932 C 413.048657 504.459007 392.139703 455.586937 349.149919 412.344749 C 306.164643 369.102562 257.3876 347.886742 240.219631 364.957054 Z M 242.685076 367.437523 C 258.487359 351.734398 305.042347 372.940452 346.670953 414.81057 C 388.295052 456.680687 409.208513 503.340843 393.410737 519.048851 C 377.608453 534.756859 331.071494 513.570335 289.447395 471.700218 C 247.823297 429.830101 226.887299 383.145531 242.685076 367.437523 Z M 242.685076 367.437523 " transform="matrix(0.866667,0,0,0.8,-7.428628,-208.746893)"/>
</g>
</g>
</g>
</defs>
<g id="surface1">
<use xlink:href="#surface5"/>
</g>
</svg>
