<?xml version="1.0" standalone="no"?>
<!DOCTYPE svg PUBLIC "-//W3C//DTD SVG 20010904//EN"
 "http://www.w3.org/TR/2001/REC-SVG-20010904/DTD/svg10.dtd">
<svg version="1.0" xmlns="http://www.w3.org/2000/svg"
 width="233.000000pt" height="173.000000pt" viewBox="0 0 233.000000 173.000000"
 preserveAspectRatio="xMidYMid meet">

<g transform="translate(0.000000,173.000000) scale(0.100000,-0.100000)"
fill="#000000" stroke="none">
<path d="M1611 1431 c-11 -7 -13 -60 -11 -277 0 -148 4 -287 8 -309 4 -22 5
-139 4 -260 l-4 -220 -106 -51 c-59 -29 -135 -73 -169 -98 l-63 -46 25 67 c30
79 55 212 55 293 0 271 -151 550 -383 703 -207 138 -488 173 -727 92 -77 -26
-170 -73 -213 -108 l-28 -22 3 -113 3 -112 70 51 c178 130 318 189 451 189
161 0 316 -88 451 -255 109 -136 193 -340 193 -467 -1 -112 -65 -275 -163
-410 l-56 -78 450 0 449 0 49 74 c53 81 68 123 52 139 -16 16 -13 43 4 57 8 7
15 20 15 30 0 13 -6 16 -25 12 -36 -6 -58 15 -51 50 4 20 2 28 -9 28 -7 0 -17
-5 -20 -10 -9 -15 -41 -12 -55 5 -7 8 -25 15 -41 15 l-29 0 0 228 0 227 113
67 c61 37 153 90 203 120 l91 53 -13 31 c-10 24 -54 56 -220 160 -252 156
-271 165 -303 145z m230 -238 c60 -36 109 -69 109 -72 0 -7 -198 -124 -217
-129 -10 -3 -13 29 -13 132 0 75 3 136 6 136 3 0 55 -30 115 -67z"/>
<path d="M368 1166 c-101 -36 -226 -109 -346 -203 l-22 -18 92 -115 c181 -226
305 -330 368 -309 45 16 54 53 47 192 -5 120 -52 455 -65 469 -4 4 -37 -3 -74
-16z m46 -297 c35 -42 35 -96 0 -138 -21 -26 -33 -31 -69 -31 -36 0 -48 5 -69
31 -35 42 -35 96 0 138 21 26 33 31 69 31 36 0 48 -5 69 -31z"/>
<path d="M1056 770 c4 -19 8 -46 9 -60 2 -14 4 -25 5 -25 1 0 3 -16 5 -35 5
-46 9 -62 19 -79 6 -9 5 -12 -1 -8 -12 8 -9 -32 4 -59 5 -11 8 -36 6 -56 -2
-20 1 -39 7 -43 5 -3 11 -18 11 -33 l1 -27 8 30 c13 53 10 189 -5 250 -20 74
-80 200 -69 145z"/>
<path d="M171 567 c-42 -21 -64 -62 -69 -127 -4 -53 0 -69 27 -125 35 -71 65
-99 121 -116 71 -22 130 31 138 124 8 98 -44 199 -121 236 -50 24 -63 25 -96
8z"/>
<path d="M504 465 c-38 -26 -47 -91 -42 -276 3 -94 10 -175 15 -180 5 -5 105
-8 234 -7 193 3 224 5 227 19 3 17 -139 213 -237 328 -58 67 -139 131 -166
131 -6 0 -20 -7 -31 -15z m177 -184 c23 -23 29 -38 29 -71 0 -90 -99 -133
-161 -71 -62 62 -20 171 66 171 27 0 44 -8 66 -29z"/>
</g>
</svg>
